<?xml version="1.0" standalone="no"?>
<!DOCTYPE svg PUBLIC "-//W3C//DTD SVG 1.1//EN" "http://www.w3.org/Graphics/SVG/1.1/DTD/svg11.dtd" >
<svg xmlns="http://www.w3.org/2000/svg">
<metadata></metadata>
<defs>
<font id="hasteristicobold" horiz-adv-x="1650" >
<font-face units-per-em="2048" ascent="1638" descent="-410" />
<missing-glyph horiz-adv-x="567" />
<glyph horiz-adv-x="2048" />
<glyph horiz-adv-x="2048" />
<glyph unicode="&#xd;" horiz-adv-x="2048" />
<glyph unicode=" "  horiz-adv-x="567" />
<glyph unicode="&#x09;" horiz-adv-x="567" />
<glyph unicode="&#xa0;" horiz-adv-x="567" />
<glyph unicode="!" horiz-adv-x="231" d="M37 0v231h133v-231h-133zM37 315v1170h133v-1170h-133z" />
<glyph unicode="&#x22;" horiz-adv-x="468" d="M47 1010v475h135v-475h-135zM266 1010v475h135v-475h-135z" />
<glyph unicode="#" horiz-adv-x="1101" d="M-6 516l16 121h287q8 47 14 88t13 96h-287l16 119h289q12 98 28.5 214t28.5 208h125l-59 -422h194q12 98 29 214t31 208h123l-60 -422h289l-16 -119h-289q-8 -47 -13 -89t-14 -95h289l-14 -121h-289q-16 -111 -32.5 -229.5t-30.5 -227.5h-125l63 457h-197 q-16 -113 -29.5 -229.5t-29.5 -227.5h-127l66 457h-289zM422 637h192q8 47 15.5 88t13.5 96h-192q-8 -47 -15.5 -89t-13.5 -95z" />
<glyph unicode="$" horiz-adv-x="858" d="M0 508h131q8 -82 37 -139.5t70 -94t88 -54t94 -17.5q57 0 105 20.5t84 57t56.5 85t20.5 103.5q0 74 -27.5 120t-72.5 76.5t-102.5 49t-118.5 37.5h2q-45 12 -99.5 34.5t-100.5 62.5t-78 101.5t-32 151.5q0 137 80 233.5t213 124.5v158h133v-158q80 -16 137.5 -55 t94.5 -91t56.5 -113.5t23.5 -119.5h-136q-10 74 -36.5 123t-62.5 80t-72.5 43t-67.5 12q-41 0 -82 -16t-74 -47t-53.5 -75t-20.5 -99q0 -61 24 -101t62.5 -66t89 -43.5t105.5 -33.5q41 -12 100.5 -32.5t114.5 -62.5t95 -112.5t40 -183.5q0 -68 -24.5 -133.5t-69.5 -117.5 t-106.5 -90t-137.5 -50v-185h-133v185q-74 12 -136 48t-108.5 93t-74 131t-31.5 160z" />
<glyph unicode="%" horiz-adv-x="1486" d="M35 1161q0 74 26.5 138.5t72.5 110.5t110.5 72.5t140.5 26.5q74 0 137.5 -26.5t110.5 -72.5t73.5 -110.5t26.5 -138.5q0 -76 -26.5 -139.5t-73.5 -109.5t-110.5 -72.5t-137.5 -26.5q-76 0 -140.5 26.5t-110.5 72.5t-72.5 109.5t-26.5 139.5zM166 1161q0 -98 60.5 -161.5 t158.5 -63.5t157.5 63.5t59.5 161.5t-59.5 161.5t-157.5 63.5t-158.5 -63t-60.5 -162zM180 0l918 1485h151l-919 -1485h-150zM700 324q0 74 26 138t72 110t110.5 73t140.5 27q74 0 138 -27t110 -73t73 -110t27 -138q0 -76 -27 -139.5t-73 -109.5t-110.5 -73t-137.5 -27 q-76 0 -140.5 27t-110.5 73t-72 109.5t-26 139.5zM829 324q0 -98 60.5 -162t159.5 -64q98 0 158.5 64t60.5 162t-60.5 161.5t-158.5 63.5t-159 -63.5t-61 -161.5z" />
<glyph unicode="&#x26;" horiz-adv-x="1400" d="M37 408q0 86 31.5 157.5t82 129t112 98.5t120.5 69q-8 10 -15.5 18.5t-17.5 18.5h2q-63 66 -99 126t-36 153q0 68 25.5 127t71.5 105t106.5 72.5t132.5 26.5q74 0 137.5 -27.5t111.5 -74.5t74.5 -109.5t26.5 -132.5q0 -74 -23.5 -127t-64.5 -93t-94 -69.5t-113 -56.5 q72 -76 133.5 -139.5t139.5 -140.5q37 92 56 153.5t19 102.5q0 45 -92 47l-2 129q123 0 172 -44t49 -124q0 -72 -27.5 -163t-74.5 -202q90 -92 188.5 -192.5t184.5 -190.5l-94 -90l-342 346q-8 -20 -21 -41q-25 -49 -57.5 -101t-80.5 -95t-117 -71t-163 -28q-102 0 -184 38 t-139.5 98.5t-88 138.5t-30.5 158zM170 406q0 -57 21.5 -111.5t62.5 -96.5t98.5 -68t130.5 -26q96 0 165 48.5t132 177.5l39 84l-338 348q-96 -45 -156.5 -90t-94 -89t-47 -88t-13.5 -89zM350 1180q0 -59 29 -103.5t57 -77.5h2q23 -25 39.5 -41t38.5 -40q63 29 111.5 54 t80 53t47 61.5t15.5 80.5q0 41 -15.5 80t-44 69t-67.5 47t-88 17q-51 0 -89 -19.5t-63.5 -48t-39 -64.5t-13.5 -68z" />
<glyph unicode="'" horiz-adv-x="237" d="M39 1014v471h133v-471h-133z" />
<glyph unicode="(" horiz-adv-x="651" d="M-6 498q0 156 46 307t130 286.5t198.5 250t254.5 196.5v-154q-100 -63 -189.5 -155t-157 -207t-106.5 -248t-39 -276q0 -145 39 -278.5t106.5 -249t156.5 -208t190 -155.5v-164q-2 2 -13.5 10t-26 17.5t-25.5 17.5t-13 10q-49 33 -122 88.5t-132 126.5 q-135 158 -216 358.5t-81 426.5z" />
<glyph unicode=")" horiz-adv-x="651" d="M6 -397q100 61 190.5 154t157 209t105.5 249t39 277q0 143 -39 276t-106.5 249t-157 208t-189.5 155v164q2 -2 13.5 -10t25.5 -17.5t25.5 -16.5t13.5 -9q49 -33 120.5 -88t133.5 -127q137 -160 217 -359.5t80 -424.5q0 -158 -46 -309.5t-129 -288t-199 -250t-255 -193.5 v152z" />
<glyph unicode="*" horiz-adv-x="602" d="M-23 1063l183 104q-43 25 -95.5 52.5t-87.5 48.5l70 114l176 -104v162h131v-162q47 29 96.5 56.5t86.5 49.5l59 -116l-176 -101q45 -27 94 -55.5t86 -50.5l-59 -111l-187 103v-162h-131v164q-43 -27 -92 -55.5t-84 -49.5z" />
<glyph unicode="+" horiz-adv-x="1032" d="M-16 449v131h450v503h129v-503h449v-131h-449v-449h-129v449h-450z" />
<glyph unicode="," horiz-adv-x="227" d="M-37 -137l129 317h144l-127 -317h-146z" />
<glyph unicode="-" horiz-adv-x="714" d="M53 500v131h582v-131h-582z" />
<glyph unicode="." horiz-adv-x="251" d="M45 0v231h170v-231h-170z" />
<glyph unicode="/" horiz-adv-x="794" d="M-39 -190l701 1675h145l-703 -1675h-143z" />
<glyph unicode="0" horiz-adv-x="1114" d="M47 461v547q0 111 27.5 190.5t73 136t100.5 90t108.5 53t100.5 25.5t75 6q102 0 192.5 -34.5t158 -98t106.5 -152.5t39 -200v-563q0 -147 -57.5 -241.5t-136 -149t-160.5 -75t-133 -20.5q-66 0 -151 24t-161.5 80t-129 149.5t-52.5 232.5zM180 461q0 -86 30 -152.5 t79 -112.5t113.5 -70t134.5 -24q47 0 109.5 17.5t117.5 58.5t93 109.5t38 173.5v563q0 63 -21.5 128t-66.5 116t-112.5 82.5t-162.5 31.5q-70 0 -133 -23.5t-112 -69.5t-78 -114.5t-29 -160.5v-553z" />
<glyph unicode="1" horiz-adv-x="440" d="M-33 1358v127h406v-1485h-135v1358h-271z" />
<glyph unicode="2" horiz-adv-x="995" d="M29 0v104l618 631q86 88 130 160t46 154v10q0 72 -24.5 131t-67.5 102t-101.5 66.5t-125.5 23.5q-61 0 -117.5 -24.5t-100.5 -74.5t-71 -126t-29 -178h-135q2 141 45 241.5t109.5 165t146.5 94t160 29.5q92 0 174 -33.5t141.5 -94t94 -143.5t34.5 -181v-19 q-4 -115 -62 -207t-157 -192q-70 -72 -130 -133.5t-120.5 -121.5t-122 -122.5t-131.5 -134.5h723v-127h-927z" />
<glyph unicode="3" horiz-adv-x="1021" d="M18 485h134q2 -100 34.5 -171.5t81.5 -119t107.5 -70t113.5 -22.5q78 0 139.5 27t104.5 73t66.5 107.5t23.5 130.5q0 53 -19.5 113.5t-63.5 111t-113.5 83t-167.5 32.5h-113v129h111q94 0 148 31t82 71t35 78.5t7 57.5q0 104 -63.5 169.5t-163.5 65.5q-55 0 -98.5 -21.5 t-75 -58t-50 -85t-20.5 -103.5h-135q6 98 41 173t87 124t115.5 73.5t129.5 24.5q70 0 136 -23.5t117.5 -69.5t82 -113.5t30.5 -157.5q0 -37 -8 -78t-25.5 -81t-45 -76t-66.5 -62q74 -41 120 -92t72.5 -106.5t36.5 -107.5t10 -91q0 -109 -34.5 -196t-98 -149.5t-149.5 -96.5 t-191 -34q-86 0 -169 35t-148.5 100.5t-106.5 160t-41 214.5z" />
<glyph unicode="4" horiz-adv-x="1056" d="M-16 160v98l733 1227h137v-1198h143v-127h-143v-160h-133v160h-737zM154 287h567l-4 952q-145 -244 -281.5 -473t-281.5 -479z" />
<glyph unicode="5" horiz-adv-x="1085" d="M2 377h133q12 -94 46 -149.5t87.5 -83t125 -36t157.5 -8.5q74 0 142.5 31t119.5 83t82 124t31 151q0 84 -31 156t-83 125t-119.5 83t-141.5 30q-18 0 -51 -4.5t-75 -20.5t-88 -50t-93 -91l-109 28l141 738h703v-127h-592q-12 -61 -21.5 -108.5l-18.5 -92.5t-18.5 -94 t-21.5 -113q45 25 106.5 44.5t141.5 19.5q111 0 204 -43t159.5 -115t103.5 -165t37 -193q0 -111 -42 -206t-111.5 -166t-163 -111t-193.5 -40q-109 0 -202 10.5t-164.5 51.5t-119 121t-61.5 221z" />
<glyph unicode="6" horiz-adv-x="1073" d="M14 475q0 127 41 217t88 158v-2q104 154 218 318.5t219 318.5h157l-338 -494q59 16 125 17q100 0 190.5 -37t158 -104.5t107.5 -161.5t40 -209q0 -104 -37 -198.5t-103.5 -166.5t-158.5 -114t-203 -42q-133 0 -228 47.5t-156.5 121t-90.5 161.5t-29 170zM147 477 q0 -74 25 -141.5t73 -119.5t116.5 -83t154.5 -31q82 0 150.5 32t118 85t76 122.5t26.5 147.5q0 98 -34 172t-86 122t-115.5 73t-125.5 25q-55 0 -121.5 -21.5t-123 -70t-95.5 -125t-39 -187.5z" />
<glyph unicode="7" horiz-adv-x="821" d="M-16 1358v127h825v-96l-645 -1389h-139l628 1358h-669z" />
<glyph unicode="8" horiz-adv-x="1026" d="M29 436q0 135 67.5 241.5t179.5 164.5q-72 51 -114.5 129t-42.5 170q0 74 29.5 141.5t81 117.5t120 79.5t146.5 29.5t146.5 -28.5t119.5 -78.5t80.5 -117.5t29.5 -143.5q0 -92 -42 -170t-115 -129q111 -59 179.5 -165t68.5 -241q0 -98 -37 -182t-100.5 -145.5 t-148.5 -97.5t-181 -36t-180.5 36t-149 97.5t-101 145.5t-36.5 182zM162 436q0 -70 25.5 -131t70.5 -106t106.5 -71t131.5 -26t131 26t106 71t70.5 106t25.5 131t-25.5 131.5t-70.5 106.5t-106.5 70.5t-130.5 25.5q-70 0 -131.5 -25.5t-106.5 -70.5t-70.5 -106.5 t-25.5 -131.5zM252 1139q0 -51 18.5 -95.5t51 -77t77.5 -51t97 -18.5q51 0 96 18.5t77.5 51t51 77t18.5 95.5t-18.5 96t-51 78t-77.5 51t-96 18t-96.5 -18t-78 -51t-51 -78t-18.5 -96z" />
<glyph unicode="9" horiz-adv-x="1073" d="M14 991q0 102 38 196.5t104.5 166t159 113.5t202.5 42q131 0 226.5 -47t157 -120.5t90 -161.5t28.5 -168q0 -66 -11.5 -120t-29.5 -99t-41 -84t-45 -72l-438 -637h-156l336 496q-55 -18 -123 -19q-100 0 -190.5 38t-159 105.5t-108.5 162t-40 208.5zM147 995 q0 -98 34 -170.5t86 -122t117 -73t126 -23.5q55 0 120.5 21.5t123 69.5t95.5 125t38 186q0 74 -24.5 141.5t-73 119.5t-116 82.5t-153.5 30.5q-84 0 -152.5 -30.5t-117.5 -84t-76 -124t-27 -148.5z" />
<glyph unicode=":" horiz-adv-x="229" d="M39 0v231h133v-231h-133zM39 854v231h133v-231h-133z" />
<glyph unicode=";" horiz-adv-x="221" d="M-49 -137l151 368h144l-154 -368h-141zM88 854v231h133v-231h-133z" />
<glyph unicode="&#x3c;" horiz-adv-x="1095" d="M-18 461v110l1028 484v-146l-838 -393q209 -98 421 -197.5t417 -195.5v-146z" />
<glyph unicode="=" horiz-adv-x="1126" d="M29 264v129h1028v-129h-1028zM29 635v129h1028v-129h-1028z" />
<glyph unicode="&#x3e;" horiz-adv-x="1093" d="M45 -23v146l838 393q-209 98 -421 197.5t-417 195.5v146l1028 -484v-110z" />
<glyph unicode="?" horiz-adv-x="921" d="M35 1147q0 25 2 49.5t10 52.5q68 272 404 258h-2q86 0 165.5 -31.5t141 -89t98.5 -137.5t37 -178q0 -63 -21.5 -118.5t-55.5 -103.5t-76 -91t-85 -82v2q-49 -47 -75.5 -91t-39 -84t-14.5 -75t-2 -63v-50h-135q2 57 7 113.5t22.5 114t54.5 117t102 124.5l39 41l55.5 55.5 t46 56.5t32 64.5t12.5 77.5q0 59 -23.5 112.5t-64.5 93.5t-97.5 63.5t-123.5 23.5q-221 16 -275 -155q-10 -41 -10 -74q0 -119 170 -230l-47 -116q-252 150 -252 350zM389 0v231h131v-231h-131z" />
<glyph unicode="@" horiz-adv-x="1605" d="M43 733q0 160 59.5 301.5t163 246.5t243.5 166.5t304 61.5q123 0 246 -39.5t221 -119.5t160.5 -197.5t62.5 -273.5q0 -152 -55 -260.5t-132 -177t-160 -101.5t-138 -33q-12 0 -34.5 2t-48.5 11.5t-50.5 28t-38.5 52.5q-35 -31 -92.5 -59.5t-130.5 -28.5q-29 0 -71 11.5 t-81 42t-65.5 87t-26.5 146.5q0 106 37 208.5t98 183.5t141 131.5t166 50.5h371l-217 -603q-20 -45 -21 -86q0 -37 25 -45t41 -8q47 0 108.5 27.5t115.5 84t92 139.5t38 194q0 129 -51 224t-131 158.5t-179.5 94t-195.5 30.5q-129 0 -245.5 -47t-206 -133t-141.5 -205.5 t-52 -265.5q0 -145 52 -262t139.5 -200t200 -127t233.5 -44q74 0 152.5 19.5t154.5 59.5t141.5 102.5t112.5 150.5h127q-53 -123 -135 -210t-177.5 -142t-193.5 -80t-180 -25q-160 0 -297 59.5t-239.5 162t-161 240.5t-58.5 296zM508 600q0 -49 11 -80t29.5 -48t39 -24.5 t39.5 -7.5q59 0 101 26t70.5 62.5t46 75.5t27.5 64q12 35 25.5 69.5t28.5 69.5l88 240h-191q-53 0 -108.5 -35t-101.5 -95.5t-75.5 -142.5t-29.5 -174z" />
<glyph unicode="A" horiz-adv-x="1435" d="M-12 0l649 1516h125l649 -1516h-145l-86 205q-246 2 -478.5 3t-478.5 1q-23 -49 -47 -105.5t-43 -103.5h-145zM281 340q109 0 212 -1t204.5 -2t206 -2t216.5 -1l-422 989q-53 -127 -105 -248t-103.5 -240.5t-102.5 -242.5t-106 -252z" />
<glyph unicode="B" horiz-adv-x="997" d="M53 0v1516h344q98 0 158.5 -15.5t112.5 -42.5q55 -31 92 -73t58.5 -87t30.5 -92t9 -90v-12v-75t-12 -109.5t-41 -122t-84 -111.5q80 -27 126 -80t68.5 -107.5t27.5 -96.5t5 -44q0 -106 -38 -174.5t-105.5 -109.5t-157.5 -57.5t-194 -16.5h-400zM186 592q0 -121 2 -229.5 t2 -231.5h265q72 0 141.5 12.5t126.5 36.5q47 23 67.5 69t20.5 107q0 45 -17.5 88t-51.5 77q-36 33 -86 53q-46 18 -103 18h-12h-355zM186 723h222q59 0 106 9t82 24q45 23 70.5 70.5t38 102t15.5 106.5t3 87q0 86 -39 143.5t-86 80.5q-29 16 -71 27t-130 11h-207 q0 -172 -2 -329.5t-2 -331.5z" />
<glyph unicode="C" horiz-adv-x="1101" d="M20 758q0 170 61.5 313t168 247.5t250 163t305.5 58.5q72 0 150.5 -17.5t131.5 -58.5v-141q-70 63 -142.5 75.5t-139.5 12.5q-135 0 -254 -49t-206 -137t-138 -207t-51 -260t51 -260t138 -207t206 -137.5t254 -49.5q37 0 68.5 4.5t64.5 15.5t68.5 30.5t80.5 52.5v-162 q-70 -41 -141.5 -55.5t-140.5 -14.5q-162 0 -305.5 58.5t-250 163t-168 248t-61.5 313.5z" />
<glyph unicode="D" horiz-adv-x="1329" d="M55 0v1516h447q178 0 319.5 -51.5t240.5 -148.5t151.5 -238.5t52.5 -319.5t-52.5 -319.5t-151.5 -239t-240.5 -148.5t-319.5 -51h-447zM193 131h309q145 0 262 42t197.5 122t123.5 196t43 263t-42 265t-122.5 198.5t-197.5 123.5t-264 43h-309v-1253z" />
<glyph unicode="E" horiz-adv-x="913" d="M51 0v1516h867v-132h-730v-557h375v-129h-375v-567h730v-131h-867z" />
<glyph unicode="F" horiz-adv-x="825" d="M51 0v1516h783v-132h-648v-557h371v-129h-371v-698h-135z" />
<glyph unicode="G" horiz-adv-x="1691" d="M37 758q0 170 61.5 313t169 247.5t249.5 163t306 58.5q104 0 207 -28.5t197 -83t176 -133t141 -177.5h-158q-111 141 -254 217t-309 76q-135 0 -253.5 -49t-207 -137t-138.5 -207t-50 -260t50 -260t138.5 -207t207 -137.5t253.5 -49.5q121 0 227.5 37t190.5 99.5 t142.5 143.5t84.5 171h-1177v131h1341q-18 -147 -87.5 -276t-177 -225.5t-247 -153t-297.5 -56.5q-164 0 -306 58.5t-249.5 163t-169 248t-61.5 313.5z" />
<glyph unicode="H" horiz-adv-x="1136" d="M53 0v1516h135v-689h727v689h138v-1516h-138v698h-727v-698h-135z" />
<glyph unicode="I" horiz-adv-x="241" d="M39 0v1516h137v-1516h-137z" />
<glyph unicode="J" horiz-adv-x="835" d="M109 -23l4 129q12 0 31.5 -1l39 -2t37 -1h29.5q217 0 270 41q70 55 86 103q16 47 22.5 95t6.5 110v1065h137v-1065q0 -53 -4 -120t-35 -134q-18 -37 -42.5 -73t-76.5 -73q-25 -18 -54.5 -34.5t-63.5 -26.5h2q-25 -10 -76 -13.5t-133 -3.5q-31 0 -85 1t-95 3z" />
<glyph unicode="K" horiz-adv-x="925" d="M49 0v1516h137v-1516h-137zM106 776l652 740h172l-651 -738q76 -90 158.5 -189.5t166.5 -200.5t166 -199.5t156 -188.5h-172z" />
<glyph unicode="L" horiz-adv-x="782" d="M47 0v1516h137v-1385h609v-131h-746z" />
<glyph unicode="M" horiz-adv-x="1753" d="M59 0v1516h158l639 -1297q158 324 318.5 649.5t318.5 647.5h156v-1516h-136l-4 1251q-154 -311 -307 -627.5t-305 -623.5h-84l-618 1253v-1253h-136z" />
<glyph unicode="N" horiz-adv-x="1355" d="M55 0v1516h146l929 -1278v1278h138v-1516h-133l-945 1300v-1300h-135z" />
<glyph unicode="O" horiz-adv-x="1679" d="M33 758q0 170 61.5 313t168 247.5t249.5 163t305 58.5t305.5 -58.5t251 -163t169 -247.5t61.5 -313t-61.5 -313.5t-169 -248t-251 -163t-305.5 -58.5t-305 58.5t-249.5 163t-168 248t-61.5 313.5zM170 758q0 -141 50 -260t138 -207t206 -137.5t253 -49.5t253 49.5 t206 137.5t139 207t51 260t-51 260t-139 207t-206 137t-253 49t-253 -49t-206 -137t-138 -207t-50 -260z" />
<glyph unicode="P" horiz-adv-x="972" d="M49 0v1516h373q68 0 121 -4.5t98 -14.5t85 -28.5t79 -47.5q72 -51 116 -146t44 -206q0 -287 -137.5 -409.5t-405.5 -122.5h-238v-537h-135zM184 666h240q104 0 181 21.5t127 69.5t73.5 124.5t23.5 185.5q0 76 -29.5 143.5t-72.5 102.5q-53 37 -122.5 54t-180.5 17h-240 v-718z" />
<glyph unicode="Q" horiz-adv-x="1660" d="M23 758q0 170 61 313t168.5 247.5t250 163t306.5 58.5q162 0 305 -58.5t249.5 -163t168 -247.5t61.5 -313q0 -123 -29.5 -220.5t-70.5 -169t-86 -122.5t-78 -82l-49 -37q-29 -20 -73 -46t-103.5 -49.5t-132 -40t-158.5 -16.5q-180 0 -326.5 63.5t-249 171t-158.5 250 t-56 298.5zM160 758q0 -86 12 -139.5t27 -88.5l-2 2l22 -57v2q61 -125 143 -198.5t166 -112.5t161 -50.5t126 -11.5q61 0 118.5 11.5t105.5 30t87 41t66 42.5q4 2 18.5 10.5t20.5 16.5q113 100 169 228t56 274q0 141 -51 260t-139 207t-206 137t-251 49q-135 0 -254 -49 t-207 -137t-138 -207t-50 -260zM727 37l137 47q-15 -49 -15 -77q0 -18 5 -27q16 -23 51 -18t78 22.5t76 19.5h5q125 0 288 -106v-154q-98 66 -165 95.5t-120 31.5q-61 -6 -131 -19q-40 -7 -74 -7q-27 0 -50 5q-54 9 -80 49q-15 22 -15 61q0 33 10 77z" />
<glyph unicode="R" horiz-adv-x="1091" d="M49 0v664v8v844h367q86 0 149.5 -4.5t109.5 -12.5t79.5 -20.5t62.5 -26.5q49 -27 90 -70t71 -97t48 -118.5t21 -132.5v-10q0 -74 -26 -158t-81 -155.5t-143 -118.5t-213 -47l-189 -2q74 -66 155 -135.5t162 -140t159.5 -139.5t146.5 -128h-191l-643 549v-549h-135z M184 672h324q94 0 160.5 13t130.5 67q61 66 85.5 133t24.5 147q0 84 -41 168t-112 133q-59 35 -140 43t-200 8h-232v-712z" />
<glyph unicode="S" horiz-adv-x="978" d="M16 401h136q14 -102 52 -161.5t85 -89t97 -38t87 -8.5q61 0 118.5 21.5t102.5 61.5t73 95.5t28 125.5q0 88 -35 145t-86 91t-110.5 52.5t-106.5 30.5q-51 12 -120 34.5t-132.5 65.5t-107.5 116t-46 187q0 98 35 174t94.5 128.5t137 79t163.5 26.5q70 0 142.5 -28.5 t132 -93t97.5 -169t38 -258.5h-137q0 84 -14.5 160t-47.5 134t-86 92t-129 34q-61 0 -113.5 -19.5t-92.5 -55.5t-62.5 -87t-22.5 -112q0 -74 31 -123t81 -82t114.5 -53.5t132.5 -38.5l-2 2q29 -6 93 -25.5t129.5 -64.5t116 -125t50.5 -209q0 -98 -39 -179t-102.5 -139.5 t-145.5 -90.5t-170 -32q-72 0 -148.5 19.5t-142 69t-112.5 131t-56 206.5z" />
<glyph unicode="T" horiz-adv-x="897" d="M-23 1384v132h918v-132h-389v-1384h-137v1384h-392z" />
<glyph unicode="U" horiz-adv-x="1071" d="M43 545v971h135v-971q0 -51 1 -93t9.5 -80t24.5 -75t47 -76q41 -55 113.5 -86t150.5 -31q74 0 145.5 31t112.5 86q31 39 47.5 76t24.5 75t9 80t1 93v971h137v-971q0 -51 -3 -113.5t-21.5 -126t-57 -125t-108.5 -110.5q-63 -41 -137 -68t-154 -27t-151.5 27t-135.5 68 q-72 49 -109.5 110.5t-56 125t-21.5 126t-3 113.5z" />
<glyph unicode="V" horiz-adv-x="1388" d="M-14 1516h149l541 -1280q137 324 273 640t272 640h147l-647 -1516h-90z" />
<glyph unicode="W" horiz-adv-x="1865" d="M20 1516h142l360 -1256q84 311 169 629.5t169 626.5h98l347 -1256q88 311 178 628.5t178 627.5h139l-434 -1516h-133l-328 1178q-78 -293 -158.5 -591t-158.5 -587h-137z" />
<glyph unicode="X" horiz-adv-x="1218" d="M-4 0l516 770q-57 86 -120.5 181.5t-128 192.5t-128 191.5t-121.5 180.5h164l412 -621q49 72 102 150.5t107.5 159.5t106.5 160t100 151h163l-499 -746q61 -90 127.5 -188.5t134 -198.5t134.5 -197.5t126 -185.5h-164l-438 649q-106 -160 -218 -325.5t-216 -323.5h-160z " />
<glyph unicode="Y" horiz-adv-x="1280" d="M-29 1516h152l502 -984q123 244 246.5 493t246.5 491h156l-580 -1145v-371h-135v371q-70 137 -144.5 282.5t-149.5 292t-149.5 290.5t-144.5 280z" />
<glyph unicode="Z" horiz-adv-x="1024" d="M-12 0l782 1384h-782v132h1009l-782 -1385h797v-131h-1024z" />
<glyph unicode="[" horiz-adv-x="405" d="M18 10v971q0 37 6.5 101.5t43 141t116.5 157.5t228 153v-156q-139 -68 -197.5 -169t-58.5 -228v-971q0 -35 6 -84t30.5 -103t75.5 -110.5t144 -101.5v-152q-209 100 -301.5 235.5t-92.5 315.5z" />
<glyph unicode="\" horiz-adv-x="792" d="M-41 1485h143l703 -1675h-146z" />
<glyph unicode="]" horiz-adv-x="407" d="M-20 -387q139 70 197.5 170t58.5 227v971q0 33 -6.5 83t-31 104.5t-75.5 109.5t-143 100v156q209 -102 301 -237.5t92 -315.5v-971q0 -39 -6.5 -103.5t-43 -140t-116.5 -156.5t-227 -151v154z" />
<glyph unicode="^" horiz-adv-x="827" d="M-20 715l364 770h111l362 -770h-145l-273 581q-68 -145 -137 -292.5t-135 -288.5h-147z" />
<glyph unicode="_" horiz-adv-x="1181" d="M-25 -68h1182v-170h-1177z" />
<glyph unicode="`" horiz-adv-x="528" d="M-37 1440l66 108l516 -301l-64 -108z" />
<glyph unicode="a" horiz-adv-x="1267" d="M33 543q0 113 40 215t113.5 180t179 125t236.5 47h563v-1110h-129l-2 164q-78 -92 -186.5 -140.5t-245.5 -48.5q-133 0 -238.5 48.5t-179 127t-112.5 181t-39 211.5zM162 543q0 -78 27.5 -157t83 -142.5t139.5 -103.5t196 -40q98 0 177 36t137 95q55 55 88 140 q26 71 26 467v30v117h-434q-90 0 -171 -32.5t-140.5 -91t-94 -139.5t-34.5 -179z" />
<glyph unicode="b" horiz-adv-x="1208" d="M41 86v1399h129l4 -565q70 80 176.5 135t253.5 55q131 0 236.5 -47t179.5 -126t114 -181t40 -213q0 -109 -39 -212.5t-113 -184t-179.5 -130t-236.5 -49.5q-82 0 -151.5 3t-136 15.5t-134 36t-143.5 64.5zM166 543l4 -387q115 -37 207 -53.5t170 -16.5q145 0 241.5 48 t152.5 118t79.5 150t23.5 141q0 98 -34.5 179t-95 139.5t-140.5 91t-170 32.5q-92 0 -174 -33.5t-142 -91.5q-62 -59 -94 -141q-29 -73 -28 -156v-20z" />
<glyph unicode="c" horiz-adv-x="946" d="M23 543q0 119 43 222t118.5 180t180 121t227.5 44q102 0 182 -28.5t125 -57.5v-152q-78 49 -152.5 81t-152.5 32q-88 0 -168 -30.5t-141.5 -88t-97 -139.5t-35.5 -184q0 -98 35.5 -179t95 -139.5t139.5 -91.5t170 -33q94 0 149.5 23.5t89.5 44.5l3 1q2 1 8 7t19 19.5 t38 35.5v-176q-63 -35 -140 -57.5t-167 -22.5q-117 0 -221.5 41t-181 116t-121.5 179.5t-45 231.5z" />
<glyph unicode="d" horiz-adv-x="1210" d="M-8 543q0 111 40 213t113.5 181t179 126t236.5 47q150 0 256.5 -55.5t177.5 -139.5v570h129v-1399q-76 -41 -143.5 -64.5t-133 -36t-136 -15.5t-152.5 -3q-133 0 -237.5 49.5t-178 130t-112.5 184t-39 212.5zM121 543q0 -61 23.5 -141t80 -150t152.5 -118t241 -48 q78 0 171.5 16.5t205.5 53.5q2 98 3 195.5t3 191.5v11q-1 88 -31 165q-32 82 -92.5 140.5t-142.5 92t-174 33.5q-90 0 -170 -32.5t-140.5 -91t-95 -139.5t-34.5 -179z" />
<glyph unicode="e" horiz-adv-x="1241" d="M33 541q0 123 44 226t120.5 180t181 120t225.5 43q109 0 209 -38t178 -108.5t126 -172t54 -226.5l-2 -65h-1003q8 -104 54 -180t109.5 -124.5t136.5 -72t138 -23.5q131 0 237.5 69t168.5 198h141q-43 -100 -103.5 -174t-133 -122t-152.5 -72t-160 -24q-123 0 -227.5 44 t-180 120t-118.5 179.5t-43 222.5zM170 625h866q-10 76 -49 141t-97.5 114.5t-130 77t-147.5 27.5q-84 0 -158.5 -27.5t-133 -75.5t-98.5 -114t-52 -143z" />
<glyph unicode="f" horiz-adv-x="534" d="M-18 961v124h165v62q0 18 2.5 52t12.5 73t33.5 80t67.5 74.5t110.5 57t165.5 27.5v-127q-25 -2 -69 -8t-87 -28.5t-75 -68.5t-32 -126v-68h263v-124h-263v-961h-129v961h-165z" />
<glyph unicode="g" horiz-adv-x="1241" d="M20 543q0 111 48.5 218t131.5 192t196.5 136.5t244.5 51.5q94 0 180 -15.5t154.5 -37t116 -48t67.5 -47.5v-843q0 -113 -28.5 -200t-76.5 -151.5t-107.5 -107.5t-121 -71t-119 -39t-98.5 -11q-80 0 -161.5 25.5t-155.5 74.5t-135.5 121t-102.5 166h144l16 -35 q18 -29 44 -63.5t69 -65.5q66 -53 138.5 -75.5t135.5 -22.5q82 0 159 31.5t136 89t96 139.5t37 184l-2 27q-150 -190 -432 -191q-135 0 -241.5 48.5t-180.5 127t-113 181t-39 211.5zM150 543q0 -78 27.5 -157t83.5 -142.5t140 -103.5t199 -40q94 0 174 36t137.5 97.5 t89 141.5t33.5 168l-6 379q-106 53 -193 71.5t-165 18.5q-98 0 -176 -28t-140 -62h2q-106 -72 -156 -176.5t-50 -202.5z" />
<glyph unicode="h" horiz-adv-x="1097" d="M55 0v1485h129l4 -512q68 72 164.5 104.5t196.5 32.5q29 0 68.5 -3t85 -14.5t94.5 -33t98 -60.5q162 -137 162 -428v-571h-131v571q0 123 -30 202t-79 126q-37 31 -97.5 58.5t-164.5 27.5q-174 0 -272.5 -96t-98.5 -271v-618h-129z" />
<glyph unicode="i" horiz-adv-x="221" d="M33 0v1085h129v-1085h-129zM33 1235v250h129v-250h-129z" />
<glyph unicode="j" horiz-adv-x="344" d="M-33 -279q70 12 111 39t62.5 69t27.5 97.5t6 122.5v1036h129v-1036q0 -66 -5 -139.5t-37 -140t-100.5 -116.5t-193.5 -65v133zM174 1235v250h129v-250h-129z" />
<glyph unicode="k" horiz-adv-x="845" d="M51 0v1485h129l4 -1057q123 166 247 330t247 327h166l-402 -530q49 -63 105.5 -135t114 -144.5t112.5 -143.5t105 -132h-168l-351 449q-49 -63 -90 -119t-90 -121v-209h-129z" />
<glyph unicode="l" horiz-adv-x="235" d="M39 0v1485h129v-1485h-129z" />
<glyph unicode="m" horiz-adv-x="1781" d="M66 0v1110h430q98 0 182 -35t143 -102q10 -10 21.5 -25.5t19.5 -27.5q8 14 17.5 25t25.5 28q59 61 144.5 99t177.5 38q100 0 175 -29.5t128 -83.5q70 -66 98.5 -168t28.5 -225v-604h-129v604q0 98 -19.5 176t-70.5 129q-74 76 -211 76q-59 0 -124 -24.5t-106 -77.5 q-20 -29 -33.5 -55.5t-21.5 -58.5t-12 -72t-4 -93v-604h-129v604q0 55 -4.5 96t-12.5 74t-20 58.5t-29 48.5q-39 47 -101.5 75.5t-140.5 28.5h-294v-985h-129z" />
<glyph unicode="n" horiz-adv-x="1142" d="M53 1110h496q29 0 68.5 -3t85 -14.5t94.5 -33t98 -60.5q162 -137 162 -428v-571h-131v571q0 123 -30 202t-81 126q-35 31 -95.5 58.5t-164.5 27.5l-371 -2v-983h-129z" />
<glyph unicode="o" horiz-adv-x="1249" d="M33 543q0 121 43 224t119.5 180t180 120t226.5 43t226.5 -43t180 -120t119.5 -180t43 -224t-43 -225.5t-119.5 -180.5t-180 -119t-226.5 -43t-226.5 43t-180 119t-119.5 180.5t-43 225.5zM164 543q0 -96 33.5 -177t92 -139.5t138.5 -92.5t174 -34t175 34t139.5 92.5 t92 139.5t33.5 177q0 94 -33.5 176t-92 140.5t-139.5 92t-175 33.5t-174 -33.5t-138.5 -92t-92 -140.5t-33.5 -176z" />
<glyph unicode="p" horiz-adv-x="1210" d="M43 -410v1401q76 41 143.5 64.5t134 35t136 14.5t151.5 3q131 0 236.5 -49t179.5 -129t113 -183.5t39 -214.5t-40 -213t-114 -181t-179.5 -126t-236.5 -47q-147 0 -254.5 55.5t-179.5 139.5v-570h-129zM166 530v-20q0 -83 30 -155q33 -81 93.5 -139t142.5 -91t174 -33 q90 0 170 32t140.5 90t95.5 139t35 179q0 61 -24 141.5t-80 151t-152.5 118.5t-241.5 48q-78 0 -170 -17.5t-207 -53.5q-2 -96 -3 -194.5t-3 -195.5z" />
<glyph unicode="q" horiz-adv-x="1210" d="M-8 524q0 109 40 213.5t114.5 186.5t180 132t238.5 50q84 0 153.5 -4t135.5 -16.5t131.5 -37t138.5 -65.5v-1403h-129l-4 567q-70 -80 -176 -135t-254 -55q-131 0 -236.5 47t-179 126t-113.5 181t-40 213zM121 524q0 -98 34.5 -180t95 -140.5t140.5 -90t170 -31.5 q92 0 174 32.5t142.5 92t93.5 139.5q30 73 30 160v16l-6 387q-113 39 -206 55.5t-171 16.5q-145 0 -241 -48t-152.5 -118t-80 -150t-23.5 -141z" />
<glyph unicode="r" horiz-adv-x="518" d="M45 0l2 1108q205 0 320.5 1t162.5 5v-131h-356v-983h-129z" />
<glyph unicode="s" horiz-adv-x="753" d="M20 299v57h130q0 -123 62 -189.5t157 -66.5q94 0 149 60.5t55 140.5v6q-4 86 -58 132t-157 75q-61 14 -115.5 35.5t-96.5 55.5t-65.5 84t-23.5 122q0 61 20.5 116.5t60.5 95.5t97.5 63.5t133.5 23.5q63 0 118.5 -21.5t96.5 -67.5t65.5 -116.5t24.5 -171.5h-129 q0 129 -53.5 190.5t-122.5 61.5q-92 0 -137.5 -51t-45.5 -123q4 -74 52.5 -109.5t140.5 -62.5q53 -14 108.5 -32.5t101.5 -53.5t77.5 -91t35.5 -147v-16q0 -68 -25.5 -126t-70.5 -102t-106.5 -70t-130.5 -26q-68 0 -130.5 22.5t-111.5 64.5t-78 102.5t-29 134.5z" />
<glyph unicode="t" horiz-adv-x="583" d="M-23 961v124h224v400h129v-400h260v-124h-260v-961h-129v961h-224z" />
<glyph unicode="u" horiz-adv-x="1140" d="M45 514v571h129v-571q0 -123 28.5 -202t82.5 -126q53 -47 120.5 -66.5t135.5 -19.5q180 0 278.5 97.5t98.5 277.5v610h129v-1085h-129l-3 117q-68 -70 -165 -106t-197 -36q-10 0 -46 1t-85 10.5t-107.5 33t-109.5 66.5q-76 68 -118 176.5t-42 251.5z" />
<glyph unicode="v" horiz-adv-x="1019" d="M-14 1085h137l369 -888q92 219 183 445t181 443h143l-446 -1085h-121z" />
<glyph unicode="w" horiz-adv-x="1603" d="M14 1085h142l317 -854q66 182 128.5 360.5t125.5 356.5h94l256 -715q78 211 157 427.5t157 424.5h141l-402 -1085h-114l-248 690q-59 -170 -120.5 -347t-119.5 -343h-114z" />
<glyph unicode="x" horiz-adv-x="911" d="M-2 0l364 547q-41 61 -88 131t-95 140.5t-94 138t-87 128.5h162l280 -419q70 102 142.5 209.5t140.5 209.5h156l-361 -540q41 -61 87 -132t94.5 -142.5t94.5 -141.5t85 -129h-156l-283 422q-68 -104 -141.5 -212t-138.5 -210h-162z" />
<glyph unicode="y" horiz-adv-x="1009" d="M-4 1085h141l350 -872q92 217 185.5 438t185.5 434h146l-646 -1491h-141l193 445q-100 250 -207 522.5t-207 523.5z" />
<glyph unicode="z" horiz-adv-x="819" d="M-8 961v124h774v-98l-594 -862h590v-125h-768v96l594 865h-596z" />
<glyph unicode="{" horiz-adv-x="489" d="M-18 440v105q70 16 112.5 108t42.5 230v354q0 70 9.5 122t31 85t58 49t94.5 16h164v-125h-140q-27 0 -42 -8t-24 -27.5t-12.5 -54t-3.5 -90.5v-352q0 -43 -7 -93t-22.5 -99.5t-39 -93.5t-56.5 -77q66 -49 95.5 -140t29.5 -208v-348q0 -59 3.5 -96t12.5 -57.5t25.5 -26.5 t40.5 -6h140v-125h-164q-57 0 -94 16.5t-58.5 50t-31 87t-9.5 124.5v349q0 121 -30.5 202.5t-124.5 128.5z" />
<glyph unicode="|" horiz-adv-x="237" d="M39 -190v1675h133v-1675h-133z" />
<glyph unicode="}" horiz-adv-x="489" d="M-23 -393h142q25 0 41 6t24.5 26.5t11.5 57.5t3 96v348q0 115 29.5 208t95.5 143q-68 66 -96.5 168t-28.5 192v352q0 109 -14.5 144.5t-65.5 35.5h-142v125h164q115 0 155 -65.5t40 -206.5v-354q0 -137 43 -229.5t110 -108.5v-107q-94 -47 -123.5 -129t-29.5 -200v-349 q0 -145 -40 -211.5t-155 -66.5h-164v125z" />
<glyph unicode="~" horiz-adv-x="1026" d="M20 469q47 88 119 134t150 46h10q63 -4 122.5 -25.5t119.5 -48.5q53 -27 100 -46t86 -19q41 0 79 45t68 96l93 -92q-47 -84 -109.5 -131t-128.5 -47q-61 0 -117.5 21.5t-115.5 50.5q-53 27 -104.5 46t-94.5 21h-6q-39 0 -83 -26.5t-97 -114.5z" />
<glyph unicode="&#xa1;" horiz-adv-x="219" d="M31 -397v1169h133v-1169h-133zM31 856v231h133v-231h-133z" />
<glyph unicode="&#xa2;" horiz-adv-x="901" d="M4 741q0 68 22.5 142.5t70.5 139t123 113t181 64.5v184h134v-186q43 -8 89 -24.5t93 -50t93 -89t89 -141.5h-147q-33 59 -71 94t-77 53.5t-75.5 24.5t-63.5 6q-78 0 -138.5 -26.5t-102.5 -71.5t-64.5 -104.5t-22.5 -123.5q0 -61 20.5 -121.5t61.5 -107.5t102.5 -75.5 t143.5 -28.5q61 0 109.5 17t83 44t58 56.5t36.5 52.5h151q-47 -88 -97 -144.5t-99.5 -88.5t-94.5 -46t-77 -18v-211h-134v211q-102 12 -176.5 59t-124 112.5t-73 140.5t-23.5 144z" />
<glyph unicode="&#xa3;" horiz-adv-x="1185" d="M12 696v129h131q-18 37 -31.5 85t-13.5 108q0 102 36 191t101.5 156t155.5 104.5t199 37.5q78 0 154.5 -27.5t143 -80.5t117 -132t74.5 -184h-135q-39 131 -133 214t-221 83q-78 0 -142.5 -26.5t-111.5 -74.5t-75 -115.5t-30 -149.5q0 -41 15.5 -88t58.5 -101h543v-129 l-404 -4q51 -53 93.5 -134t42.5 -191q0 -25 -4.5 -86.5t-53.5 -153.5h109q59 0 101 5t72 14.5t50 23.5t39 33q51 53 70.5 108.5t19.5 106.5q0 29 -4 49t-8 37q0 2 -1 23.5t-1 23.5h123q0 -2 3 -10.5t5 -16.5t5 -15t3 -9q4 -16 6 -31.5t2 -48.5q0 -53 -13 -100.5t-32.5 -87 t-42 -71.5t-41.5 -50q-37 -31 -70.5 -52.5t-74.5 -35t-93.5 -18.5t-125.5 -5h-553v127h301q20 27 47.5 86t27.5 152q0 104 -48 178.5t-146 152.5h-240z" />
<glyph unicode="&#xa4;" horiz-adv-x="1105" d="M27 1100l94 94l147 -150q119 90 267 91q70 0 138 -24t126 -64l145 147l96 -94l-147 -148q41 -53 64.5 -117.5t23.5 -142.5q0 -152 -92 -268l147 -145l-94 -95l-147 150q-55 -37 -124 -61.5t-136 -24.5q-74 0 -140.5 23.5t-122.5 62.5q-35 -37 -77.5 -78t-73.5 -74l-88 99 l147 145q-94 119 -94 266q0 152 88 262zM219 690q0 -63 26.5 -119.5t69.5 -98.5t100.5 -66.5t119.5 -24.5q61 0 118.5 24.5t100.5 66.5t68.5 98.5t25.5 121.5q0 66 -25.5 122t-68.5 98t-100.5 65.5t-118.5 23.5t-119 -23.5t-101 -65.5t-69.5 -98t-26.5 -122v-2z" />
<glyph unicode="&#xa5;" horiz-adv-x="1054" d="M-25 1485h148l383 -631q96 154 195.5 316.5t195.5 314.5h147l-385 -631h328v-125h-405q-2 -4 -4.5 -10t-4.5 -10v-109h414v-125h-414v-475h-133v475h-407v125h407v109q-4 4 -7 8t-7 12h-393v125h323q-45 74 -94 156t-99 162.5t-97.5 160.5t-90.5 152z" />
<glyph unicode="&#xa6;" horiz-adv-x="204" d="M39 -190v716h133v-716h-133zM39 770v715h133v-715h-133z" />
<glyph unicode="&#xa7;" horiz-adv-x="1028" d="M25 655q0 76 42 158t128 141q-25 31 -44.5 80t-19.5 117q0 84 29.5 150.5t80 112.5t120 70.5t149.5 24.5q86 0 155.5 -25.5t121 -75.5t79 -124t27.5 -168h-125q-8 80 -31.5 131t-57.5 80t-78 39t-91 10q-117 0 -183.5 -61.5t-66.5 -159.5q0 -49 16.5 -83t41 -57.5 t54 -38.5t58.5 -28l285 -135q20 -10 62 -32.5t83 -61.5t73 -96.5t32 -137.5q0 -88 -42 -165.5t-112 -131.5q70 -63 88.5 -126.5t18.5 -112.5q0 -80 -31 -147.5t-86.5 -118t-132 -79t-168.5 -28.5q-10 0 -46 2t-85.5 13.5t-104.5 35t-101 68.5t-76 114.5t-30 170.5v98h131 v-96q0 -74 27 -126.5t70 -84t98 -47t115 -15.5q129 0 208.5 66.5t79.5 173.5q0 57 -36.5 108.5t-137.5 98.5l-370 172q-20 8 -56 28.5t-72 58.5t-62.5 96t-26.5 144zM156 649q0 -70 33.5 -118t91.5 -76h-2q109 -47 207 -94.5t206 -96.5q23 12 48.5 33.5t47 49.5t35 61.5 t13.5 72.5q0 45 -16.5 78t-41 57.5t-54.5 42l-54 31.5q-4 2 -7.5 2t-7.5 2q-92 45 -178 87t-180 87q-61 -35 -101 -90t-40 -129z" />
<glyph unicode="&#xa8;" horiz-adv-x="464" d="M43 1178v297h131v-297h-131zM270 1178v297h131v-297h-131z" />
<glyph unicode="&#xa9;" horiz-adv-x="1669" d="M41 743q0 156 57.5 295.5t158.5 242.5t242.5 163.5t307.5 60.5q164 0 303 -59.5t241.5 -162.5t161 -242.5t58.5 -297.5q0 -164 -60.5 -303t-164 -241.5t-242.5 -160.5t-297 -58q-162 0 -301 57t-242.5 158.5t-163 242t-59.5 305.5zM170 743q0 -135 49 -251.5t134 -202.5 t202 -135.5t252 -49.5q133 0 248.5 49.5t200.5 135.5t134.5 202.5t49.5 251.5q0 131 -48.5 247t-132 203t-199.5 137t-253 50q-139 0 -256 -51t-201 -138t-132 -203t-48 -245zM369 741q0 106 31.5 194.5t91 152t142.5 98.5t185 35q78 0 148.5 -27t126 -75t91.5 -114.5 t46 -146.5h-129q-14 63 -44 109.5t-69 74t-84 41t-88 13.5q-68 0 -126 -23.5t-101 -70t-67.5 -112t-24.5 -147.5q0 -96 29.5 -162.5t75.5 -108.5t102.5 -60.5t109.5 -18.5q18 0 63.5 7.5t94.5 38t90 92t53 169.5h129q-8 -104 -47 -185t-98.5 -136t-133 -84t-153.5 -29 t-160 28t-143.5 86t-102 148t-38.5 213z" />
<glyph unicode="&#xaa;" horiz-adv-x="874" d="M27 1141q0 76 29.5 143.5t81.5 117.5t122 78.5t150 28.5q66 0 131 -22.5t112 -67.5q2 -4 4 -6q0 -2 2 -2q2 -2 3 -2q2 0 0 6v80h131v-711h-131v78q-12 -10 -24.5 -20.5t-31.5 -20.5q-59 -37 -112.5 -44t-83.5 -7q-86 0 -157 30.5t-121 82t-77.5 119t-27.5 139.5z M156 1133q0 -41 16 -83t49 -76t81 -56.5t110 -22.5q55 0 101 20.5t79 54.5t51.5 78t18.5 91q0 51 -20.5 96t-55.5 79t-80 52t-96 18q-47 0 -93.5 -17t-82 -49t-57 -79t-21.5 -106zM657.5 1421q-2.5 2 1.5 -10l3 -2v6q-2 4 -4.5 6z" />
<glyph unicode="&#xab;" horiz-adv-x="589" d="M-10 563l252 436l88 -114l-185 -322q45 -76 93.5 -161t91.5 -158l-88 -115zM203 563l252 436l86 -114l-185 -324q45 -76 93.5 -160t91.5 -155l-86 -117z" />
<glyph unicode="&#xac;" horiz-adv-x="1103" d="M-20 635v129h1028v-500h-129v371h-899z" />
<glyph unicode="&#xad;" horiz-adv-x="702" d="M47 500v131h582v-131h-582z" />
<glyph unicode="&#xae;" horiz-adv-x="1669" d="M41 743q0 156 57.5 295.5t158.5 242.5t242.5 163.5t307.5 60.5q164 0 303 -59.5t241.5 -162.5t161 -242.5t58.5 -297.5q0 -164 -60.5 -303t-164 -241.5t-242.5 -160.5t-297 -58q-162 0 -301 57t-242.5 158.5t-163 242t-59.5 305.5zM170 743q0 -135 49 -251.5t134 -202.5 t202 -135.5t252 -49.5q133 0 248.5 49.5t200.5 135.5t134.5 202.5t49.5 251.5q0 131 -48.5 247t-132 203t-199.5 137t-253 50q-139 0 -256 -51t-201 -138t-132 -203t-48 -245zM455 279v919h389q20 0 74.5 -4t110.5 -28.5t100.5 -79t44.5 -152.5q0 -72 -31 -122t-78 -85 q53 -33 70.5 -82t21.5 -110q2 -61 6 -99.5t9.5 -64t14.5 -46t21 -46.5h-135q-12 14 -18 26t-9.5 28.5t-6.5 42t-5 66.5v-2q-2 12 -2 27.5t-2 34.5q-2 37 -8 65.5t-27.5 50t-63.5 33t-116 11.5h-231v-383h-129zM584 786h227q4 0 7 1t9 1q25 2 62 7.5t71.5 19.5t59 42t24.5 77 q0 51 -25.5 78.5t-59 41t-68.5 15.5t-55 2h-252v-285z" />
<glyph unicode="&#xaf;" horiz-adv-x="886" d="M49 1257v134h756v-134h-756z" />
<glyph unicode="&#xb0;" horiz-adv-x="694" d="M25 1116q0 63 23.5 120.5t65.5 98.5t98 65.5t122 24.5t122 -24.5t98 -65.5t66.5 -98.5t24.5 -120.5q0 -66 -24.5 -122t-66.5 -98t-98.5 -66.5t-121.5 -24.5q-66 0 -122 24.5t-98 66.5t-65.5 98.5t-23.5 121.5zM154 1116q0 -76 52 -128t128 -52t128 52t52 128t-52 128 t-128 52t-128 -52t-52 -128z" />
<glyph unicode="&#xb1;" horiz-adv-x="1040" d="M-16 0v129h1036v-129h-1036zM-16 535v131h452v374h131v-374h453v-131h-453v-375h-131v375h-452z" />
<glyph unicode="&#xb2;" horiz-adv-x="638" d="M23 807v98l364 379q92 98 92 170q0 31 -7 60.5t-25.5 53t-48 38t-74.5 14.5q-68 0 -111 -47t-47 -133v-54h-129v54q2 82 29.5 140t68.5 95t92.5 53.5t100.5 16.5q127 0 204.5 -76t77.5 -215q0 -72 -35.5 -132t-97.5 -126q-41 -41 -69.5 -71.5t-56 -60.5t-57.5 -60.5 t-69 -71.5h389v-125h-591z" />
<glyph unicode="&#xb3;" horiz-adv-x="659" d="M10 1139h127q2 -63 19.5 -106.5t43 -69t55.5 -37t56 -11.5q84 0 129 50.5t45 126.5q0 27 -10 57.5t-32.5 56t-58.5 43t-87 17.5h-90v125h90q47 0 73.5 14t41 33.5t17.5 39t3 27.5q0 47 -28.5 80t-84.5 35q-51 0 -81.5 -43t-34.5 -111h-131q2 76 27.5 129.5t62.5 86t80 48 t80 15.5q45 0 88 -17.5t76.5 -49t54 -75.5t20.5 -98q0 -59 -21.5 -101t-50.5 -67q59 -41 92 -102t33 -139q0 -66 -22.5 -122t-62.5 -96t-96 -62.5t-122 -22.5q-55 0 -108 21.5t-96.5 64.5t-70 108.5t-26.5 151.5z" />
<glyph unicode="&#xb4;" horiz-adv-x="528" d="M-35 1247l516 301l66 -108l-518 -301z" />
<glyph unicode="&#xb5;" horiz-adv-x="950" d="M51 -344v1429h129v-610q0 -35 1 -74t7.5 -75.5t19.5 -70.5t38 -60q27 -31 57.5 -50.5t60 -29t57.5 -12.5t50 -3q139 0 224 114t85 353v518h131v-1085h-131v115q-43 -55 -116.5 -97.5t-192.5 -42.5q-59 0 -104 7.5t-80 20.5t-60.5 30.5t-46.5 40.5v-418h-129z" />
<glyph unicode="&#xb6;" horiz-adv-x="1056" d="M2 1067q0 125 56.5 214t131.5 138q39 23 113 44.5t184 21.5h506v-129h-123v-1596h-133v1592h-168v-1592h-135v893q-102 0 -183 34t-136.5 91.5t-84 132t-28.5 156.5z" />
<glyph unicode="&#xb7;" horiz-adv-x="237" d="M39 410v229h133v-229h-133z" />
<glyph unicode="&#xb8;" horiz-adv-x="374" d="M-4 -188h41l-31 6l119 258h137l-72 -103q82 -4 125 -57.5t43 -116.5q0 -31 -11 -63.5t-32.5 -59t-55.5 -43t-77 -16.5q-12 0 -37.5 4t-55.5 23.5t-55.5 58.5t-37.5 109zM125 -201q12 -41 31.5 -48t25.5 -7q18 0 33.5 13.5t15.5 41.5q0 23 -14.5 36t-34.5 13 q-31 0 -57 -49z" />
<glyph unicode="&#xb9;" horiz-adv-x="333" d="M-33 1606v123h309v-922h-129v799h-180z" />
<glyph unicode="&#xba;" horiz-adv-x="825" d="M27 1133q0 80 28.5 148.5t77.5 119.5t116.5 79.5t145.5 28.5q84 0 152.5 -29.5t118 -79.5t77 -117.5t27.5 -141.5q0 -84 -31.5 -152.5t-85 -117t-121 -75t-137.5 -26.5q-74 0 -141.5 28.5t-117.5 78t-79.5 115t-29.5 141.5zM156 1135q0 -47 18.5 -90.5t51 -77t76.5 -53 t93 -19.5q47 0 92 18.5t79 51t54.5 78t20.5 98.5q0 49 -18.5 93t-50 78t-76.5 53t-97 19q-47 0 -91 -17t-77.5 -50t-54 -79t-20.5 -103z" />
<glyph unicode="&#xbb;" horiz-adv-x="589" d="M29 244l184 319q-45 78 -93 163t-91 159l86 114l252 -436l-252 -434zM240 244l184 319q-45 78 -93 163t-91 159l88 114l250 -436l-250 -434z" />
<glyph unicode="&#xbc;" horiz-adv-x="1339" d="M23 1362v123h311v-922h-129v799h-182zM190 0l660 1485h139l-661 -1485h-138zM621 162v90l442 670h123v-637h80v-123h-80v-162h-131v162h-434zM795 285h260l-2 397q-33 -51 -64 -98t-61.5 -94.5t-63.5 -97.5t-69 -107z" />
<glyph unicode="&#xbd;" horiz-adv-x="1433" d="M27 1362v123h311v-922h-129v799h-182zM195 2l659 1485h139l-661 -1485h-137zM772 0v96l363 379q47 51 70.5 93t23.5 79q0 29 -8.5 58.5t-26.5 53t-48 39t-73 15.5q-70 0 -111.5 -47t-46.5 -133v-53h-131v53q2 82 30 139t70 94t93 53.5t100 16.5q125 0 203 -76t78 -213 q0 -72 -35 -132t-98 -126q-39 -41 -69 -72.5t-57.5 -60.5t-57 -60.5t-68.5 -72.5h391v-123h-592z" />
<glyph unicode="&#xbe;" horiz-adv-x="1568" d="M23 895h129q2 -63 19 -106.5t43 -69t55.5 -36.5t56.5 -11q84 0 129 49t45 127q0 27 -10.5 57.5t-33 56t-58.5 43t-87 17.5h-90v125h90q47 0 74 14.5t41 33.5t17 38.5t3 28.5q0 47 -29.5 79.5t-82.5 34.5q-51 0 -83 -43t-36 -110h-129q2 76 27.5 129t62.5 85.5t80 48 t80 15.5q45 0 88 -17.5t77 -49t54 -75.5t20 -97q0 -61 -22.5 -102.5t-48.5 -65.5q59 -41 92 -102.5t33 -139.5q0 -66 -22.5 -122t-62.5 -96t-96.5 -62.5t-121.5 -22.5q-55 0 -109.5 21.5t-97.5 64.5t-69.5 108.5t-26.5 151.5zM403 -2l660 1485h139l-661 -1485h-138zM838 162 v90l440 670h123v-637h80v-123h-80v-162h-129v162h-434zM1010 285h262l-2 397q-66 -102 -126.5 -192.5t-133.5 -204.5z" />
<glyph unicode="&#xbf;" horiz-adv-x="907" d="M0 14q0 63 21.5 118.5t55.5 104t76 91.5t85 82v-2q49 45 75.5 89t39 84t14.5 75.5t2 64.5v49h135q-2 -55 -7 -112.5t-23.5 -116t-54.5 -117.5t-102 -123l-36 -37q-31 -29 -57.5 -56.5t-46 -57t-32 -63.5t-12.5 -77q0 -63 23.5 -117.5t65.5 -94.5t97.5 -62.5t118.5 -22.5 q49 0 103.5 17.5t101.5 57.5t79 104.5t36 158.5h133q-6 -135 -55.5 -226t-117 -146.5t-142 -78t-136.5 -22.5q-86 0 -165.5 32t-140 89t-97.5 137t-37 178zM371 854v231h131v-231h-131z" />
<glyph unicode="&#xc0;" horiz-adv-x="1427" d="M-14 0l649 1516h125l649 -1516h-145l-86 205q-246 2 -478.5 3t-478.5 1q-23 -49 -47 -105.5t-43 -103.5h-145zM279 340q109 0 212 -1t204.5 -2t206 -2t216.5 -1l-422 989q-53 -127 -105 -248t-103.5 -240.5t-102.5 -242.5t-106 -252zM373 1829l65 110l527 -307l-64 -110z " />
<glyph unicode="&#xc1;" horiz-adv-x="1427" d="M-16 0l649 1516h125l649 -1516h-145l-86 205q-246 2 -478.5 3t-478.5 1q-23 -49 -47.5 -105.5t-42.5 -103.5h-145zM276 340q109 0 212.5 -1t205 -2t206 -2t216.5 -1l-422 989q-53 -127 -105 -248t-103.5 -240.5t-102.5 -242.5t-107 -252zM401 1632l527 307l65 -110 l-528 -307z" />
<glyph unicode="&#xc2;" horiz-adv-x="1429" d="M-14 0l649 1516h125l649 -1516h-145l-86 205q-246 2 -478.5 3t-478.5 1q-23 -49 -47 -105.5t-43 -103.5h-145zM227 1640l455 256l459 -258l-125 -73l-334 182q-78 -45 -166 -93t-166 -89zM279 340q109 0 212 -1t204.5 -2t206 -2t216.5 -1l-422 989q-53 -127 -105 -248 t-103.5 -240.5t-102.5 -242.5t-106 -252z" />
<glyph unicode="&#xc3;" horiz-adv-x="1415" d="M-23 0l650 1516h125l649 -1516h-146l-86 205q-246 2 -478 3t-478 1q-23 -49 -47.5 -105.5t-42.5 -103.5h-146zM266 1739q51 43 110.5 73.5t137.5 30.5q35 0 75 -8t107 -41q47 -25 81 -37t75 -12q35 0 65.5 13.5t77.5 41.5l90 -98q-53 -35 -114.5 -63.5t-116.5 -28.5 q-47 0 -92 9t-105 42h2q-31 16 -51 26.5t-35.5 15.5t-29 7t-29.5 2q-43 0 -84 -21.5t-70 -43.5zM270 340q109 0 212.5 -1t204.5 -2t205.5 -2t217.5 -1l-422 989q-53 -127 -105.5 -248t-103.5 -240.5t-102 -242.5t-107 -252z" />
<glyph unicode="&#xc4;" horiz-adv-x="1421" d="M-18 0l649 1516h125l649 -1516h-145l-86 205q-246 2 -478.5 3t-478.5 1q-23 -49 -47.5 -105.5t-42.5 -103.5h-145zM274 340q109 0 212.5 -1t205 -2t205.5 -2t217 -1l-422 989q-53 -127 -105 -248t-103.5 -240.5t-102.5 -242.5t-107 -252zM496 1561v303h135v-303h-135z M729 1561v303h135v-303h-135z" />
<glyph unicode="&#xc5;" horiz-adv-x="1437" d="M-10 0l649 1516h125l649 -1516h-145l-86 205q-246 2 -478.5 3t-478.5 1q-23 -49 -47 -105.5t-43 -103.5h-145zM283 340q109 0 212 -1t204.5 -2t206 -2t216.5 -1l-422 989q-53 -127 -105 -248t-103.5 -240.5t-102.5 -242.5t-106 -252zM471 1683q0 45 17.5 84t47 68 t68.5 46t82 17q45 0 86 -17t69.5 -46t46 -68t17.5 -84t-17.5 -84.5t-46 -68.5t-69.5 -46.5t-86 -17.5t-84 17.5t-68.5 46.5t-46 68.5t-16.5 84.5zM604 1686q0 -35 23.5 -59.5t58.5 -24.5q37 0 61.5 24.5t24.5 59.5t-24.5 59t-61.5 24q-35 0 -58.5 -24.5t-23.5 -58.5z" />
<glyph unicode="&#xc6;" horiz-adv-x="1841" d="M-31 0l1047 1516h770v-132h-615v-557h615v-129h-615v-567h615v-131h-750v209h-772q-35 -49 -70.5 -105.5t-66.5 -103.5h-158zM362 338q174 0 335 1t339 1l-4 975q-86 -127 -169 -247t-164 -238.5t-164.5 -240.5t-172.5 -251z" />
<glyph unicode="&#xc7;" horiz-adv-x="1085" d="M0 758q0 170 61.5 313t168 247.5t250 163t304.5 58.5q72 0 152 -16.5t131 -38.5v-139q-70 29 -140.5 47t-142.5 18q-135 0 -252.5 -49t-205.5 -137t-138.5 -207t-50.5 -260t50.5 -260t138.5 -207t205.5 -137.5t252.5 -49.5q72 0 138.5 16.5t144.5 43.5v-139 q-68 -23 -142.5 -36.5t-140.5 -13.5q-16 0 -23 -1t-24 1q-2 0 -3 -1t-3 -1q80 -6 122 -60t42 -118q0 -33 -11.5 -65.5t-35 -59t-57 -44t-78.5 -17.5q-12 0 -39 4t-55.5 24.5t-56 59.5t-40.5 110h43l-30 7l81 176q-133 27 -245.5 95.5t-194.5 168.5t-129 228t-47 276z M655 -205q12 -41 33 -48t25 -7q20 0 35.5 13.5t15.5 41.5q0 23 -14 36t-37 13q-31 0 -58 -49z" />
<glyph unicode="&#xc8;" horiz-adv-x="890" d="M29 0v1516h868v-132h-731v-557h731v-129h-731v-567h731v-131h-868zM139 1829l66 110l526 -307l-63 -110z" />
<glyph unicode="&#xc9;" horiz-adv-x="888" d="M29 0v1516h866v-132h-731v-557h731v-129h-731v-567h731v-131h-866zM168 1632l526 307l66 -110l-529 -307z" />
<glyph unicode="&#xca;" horiz-adv-x="897" d="M0 1640l455 256l458 -258l-127 -73l-331 182q-78 -45 -166 -93t-166 -89zM35 0v1516h866v-132h-729v-557h729v-129h-729v-567h729v-131h-866z" />
<glyph unicode="&#xcb;" horiz-adv-x="892" d="M31 0v1516h868v-132h-731v-557h731v-129h-731v-567h731v-131h-868zM268 1561v303h135v-303h-135zM502 1561v303h135v-303h-135z" />
<glyph unicode="&#xcc;" horiz-adv-x="528" d="M-43 1829l66 110l526 -307l-64 -110zM238 0v1516h137v-1516h-137z" />
<glyph unicode="&#xcd;" horiz-adv-x="530" d="M-33 1632l529 307l65 -110l-528 -307zM141 0v1516h135v-1516h-135z" />
<glyph unicode="&#xce;" horiz-adv-x="813" d="M-59 1640l454 256l459 -258l-127 -73l-332 182q-78 -45 -166 -93t-166 -89zM328 0v1516h135v-1516h-135z" />
<glyph unicode="&#xcf;" horiz-adv-x="342" d="M-16 1561v303h133v-303h-133zM98 0v1516h135v-1516h-135zM217 1561v303h133v-303h-133z" />
<glyph unicode="&#xd0;" horiz-adv-x="1454" d="M27 698v129h149v689h445q178 0 320 -51.5t240.5 -148.5t150.5 -238.5t52 -319.5t-52 -319.5t-150.5 -239t-240.5 -148.5t-320 -51h-445v698h-149zM311 131h310q147 0 262.5 42t197.5 122t125 196t43 263t-42 265t-122.5 198.5t-197.5 123.5t-266 43h-310v-557h488v-129 h-488v-567z" />
<glyph unicode="&#xd1;" horiz-adv-x="1310" d="M33 0v1516h145l930 -1278v1278h137v-1516h-133l-944 1300v-1300h-135zM231 1739q51 43 110.5 73.5t135.5 30.5q35 0 76 -8t106 -41q49 -25 82 -37t74 -12q35 0 65.5 13.5t77.5 41.5l91 -98q-53 -35 -115 -63.5t-117 -28.5q-45 0 -91 9t-105 42h2q-31 16 -51.5 26.5 t-36 15.5t-28.5 7t-30 2q-41 0 -83 -21.5t-70 -43.5z" />
<glyph unicode="&#xd2;" d="M18 758q0 170 61.5 313t169 247.5t250 163t306.5 58.5q162 0 305 -58.5t249.5 -163t168 -247.5t61.5 -313t-61.5 -313.5t-168 -248t-249.5 -163t-305 -58.5q-164 0 -306.5 58.5t-250 163t-169 248t-61.5 313.5zM156 758q0 -141 50 -260t138 -207t207 -137.5t254 -49.5 q133 0 252 49.5t207 137.5t139 207t51 260t-51 260t-139 207t-207 137t-252 49q-135 0 -254 -49t-207 -137t-138 -207t-50 -260zM494 1829l65 110l526 -307l-63 -110z" />
<glyph unicode="&#xd3;" d="M18 758q0 170 61.5 313t169 247.5t250 163t306.5 58.5q162 0 305 -58.5t249.5 -163t168 -247.5t61.5 -313t-61.5 -313.5t-168 -248t-249.5 -163t-305 -58.5q-164 0 -306.5 58.5t-250 163t-169 248t-61.5 313.5zM156 758q0 -141 50 -260t138 -207t207 -137.5t254 -49.5 q133 0 252 49.5t207 137.5t139 207t51 260t-51 260t-139 207t-207 137t-252 49q-135 0 -254 -49t-207 -137t-138 -207t-50 -260zM524 1632l527 307l65 -110l-528 -307z" />
<glyph unicode="&#xd4;" horiz-adv-x="1654" d="M20 758q0 170 61.5 313t169 247.5t250 163t306.5 58.5q162 0 305 -58.5t249.5 -163t168 -247.5t61.5 -313t-61.5 -313.5t-168 -248t-249.5 -163t-305 -58.5q-164 0 -306.5 58.5t-250 163t-169 248t-61.5 313.5zM158 758q0 -141 50 -260t138 -207t207 -137.5t254 -49.5 q133 0 252 49.5t207 137.5t139 207t51 260t-51 260t-139 207t-207 137t-252 49q-135 0 -254 -49t-207 -137t-138 -207t-50 -260zM352 1640l455 256l459 -258l-127 -73l-332 182q-80 -45 -168 -93t-166 -89z" />
<glyph unicode="&#xd5;" d="M18 758q0 170 61.5 313t169 247.5t250 163t306.5 58.5q162 0 305 -58.5t249.5 -163t168 -247.5t61.5 -313t-61.5 -313.5t-168 -248t-249.5 -163t-305 -58.5q-164 0 -306.5 58.5t-250 163t-169 248t-61.5 313.5zM156 758q0 -141 50 -260t138 -207t207 -137.5t254 -49.5 q133 0 252 49.5t207 137.5t139 207t51 260t-51 260t-139 207t-207 137t-252 49q-135 0 -254 -49t-207 -137t-138 -207t-50 -260zM395 1739q53 43 112.5 73.5t135.5 30.5q35 0 75 -8t107 -41q47 -25 81 -37t75 -12q35 0 65.5 13.5t77.5 41.5l90 -98q-53 -35 -114.5 -63.5 t-116.5 -28.5q-45 0 -91 9t-106 42h2q-31 16 -51 26.5t-35.5 15.5t-29 7t-29.5 2q-43 0 -84 -21.5t-70 -43.5z" />
<glyph unicode="&#xd6;" d="M18 758q0 170 61.5 313t169 247.5t250 163t306.5 58.5q162 0 305 -58.5t249.5 -163t168 -247.5t61.5 -313t-61.5 -313.5t-168 -248t-249.5 -163t-305 -58.5q-164 0 -306.5 58.5t-250 163t-169 248t-61.5 313.5zM156 758q0 -141 50 -260t138 -207t207 -137.5t254 -49.5 q133 0 252 49.5t207 137.5t139 207t51 260t-51 260t-139 207t-207 137t-252 49q-135 0 -254 -49t-207 -137t-138 -207t-50 -260zM621 1561v303h135v-303h-135zM854 1561v303h135v-303h-135z" />
<glyph unicode="&#xd7;" horiz-adv-x="1155" d="M31 84l432 430l-217 217t-215 213l86 100l440 -436q104 104 221 219t219 217l88 -100l-434 -428q104 -104 218 -217t218 -217l-90 -96l-440 438q-104 -104 -220 -219t-220 -219z" />
<glyph unicode="&#xd8;" horiz-adv-x="1667" d="M29 758q0 170 61.5 313t169 247.5t249.5 163t306 58.5q117 0 220.5 -29.5t193.5 -83.5q41 57 88 121t86 117l108 -82l-170 -235q117 -106 187.5 -258t70.5 -332q0 -170 -61 -313.5t-167.5 -248t-250 -163t-305.5 -58.5q-115 0 -213 27t-186 78q-45 -63 -97.5 -134 t-95.5 -130l-104 86l184 254q-129 104 -201.5 259.5t-72.5 342.5zM166 758q0 -154 57.5 -281t161.5 -215l766 1057q-76 43 -161 67.5t-175 24.5q-135 0 -254 -49t-207 -137t-138 -207t-50 -260zM496 188q145 -84 319 -84q133 0 251 49.5t206 137.5t139 207t51 260 q0 150 -52 270.5t-150 208.5q-195 -268 -381.5 -523t-382.5 -526z" />
<glyph unicode="&#xd9;" horiz-adv-x="1032" d="M25 545v971h137v-971q0 -51 1 -93t9 -80t23.5 -75t46.5 -76q41 -55 113.5 -86t150.5 -31q74 0 146.5 31t113.5 86q31 39 46 76t23.5 75t9.5 80t1 93v971h137v-971q0 -51 -3 -113.5t-21.5 -126t-57.5 -125t-108 -110.5q-63 -41 -137 -68t-152 -27q-82 0 -153.5 27 t-135.5 68q-72 49 -109.5 110.5t-56 125t-21.5 126t-3 113.5zM193 1829l65 110l526 -307l-63 -110z" />
<glyph unicode="&#xda;" horiz-adv-x="1032" d="M23 545v971h137v-971q0 -51 1 -93t9 -80t23.5 -75t46.5 -76q41 -55 113.5 -86t150.5 -31q74 0 146.5 31t113.5 86q31 39 46 76t23.5 75t9.5 80t1 93v971h137v-971q0 -51 -3 -113.5t-21.5 -126t-57.5 -125t-108 -110.5q-63 -41 -137 -68t-152 -27q-82 0 -154 27t-135 68 q-72 49 -109.5 110.5t-56 125t-21.5 126t-3 113.5zM221 1632l527 307l65 -110l-528 -307z" />
<glyph unicode="&#xdb;" horiz-adv-x="1044" d="M29 545v971h137v-971q0 -51 1 -93t9 -80t23.5 -75t46.5 -76q41 -55 113.5 -86t150.5 -31q74 0 146.5 31t113.5 86q31 39 46 76t23.5 75t9.5 80t1 93v971h137v-971q0 -51 -3 -113.5t-21.5 -126t-57.5 -125t-108 -110.5q-63 -41 -137 -68t-154 -27t-151.5 27t-135.5 68 q-72 49 -109.5 110.5t-56 125t-21.5 126t-3 113.5zM51 1640l455 256l459 -258l-125 -73l-334 182q-78 -45 -166 -93t-166 -89z" />
<glyph unicode="&#xdc;" horiz-adv-x="1038" d="M27 545v971h137v-971q0 -51 1 -93t9 -80t23.5 -75t46.5 -76q41 -55 113.5 -86t150.5 -31q74 0 146.5 31t113.5 86q31 39 46 76t23.5 75t9.5 80t1 93v971h137v-971q0 -51 -3 -113.5t-21.5 -126t-57.5 -125t-108 -110.5q-63 -41 -137 -68t-152 -27q-82 0 -153.5 27 t-135.5 68q-72 49 -109.5 110.5t-56 125t-21.5 126t-3 113.5zM322 1561v303h135v-303h-135zM555 1561v303h135v-303h-135z" />
<glyph unicode="&#xdd;" horiz-adv-x="1095" d="M-41 1516h152l421 -828q104 207 210 415t210 413h154l-506 -992v-524h-135v524q-59 117 -124 243t-129.5 254t-129 253t-123.5 242zM254 1632l526 307l66 -110l-529 -307z" />
<glyph unicode="&#xde;" horiz-adv-x="964" d="M49 0v1516h135v-304h238q72 0 126 -4t99 -15t83 -29.5t75 -45.5q33 -27 62.5 -65.5t51 -84.5t34 -98.5t12.5 -103.5q0 -111 -44 -207t-116 -147q-39 -29 -76 -47.5t-81 -28.5t-98 -13.5t-128 -3.5h-238v-319h-135zM184 449h240q113 0 181.5 18t121.5 53q41 37 71.5 104.5 t30.5 139.5t-30.5 141.5t-71.5 104.5q-53 37 -121.5 54t-181.5 17h-240v-632z" />
<glyph unicode="&#xdf;" horiz-adv-x="1021" d="M47 0v936q0 82 5 143.5t14.5 109.5t24.5 84t38 68q55 74 142 120t178 46q96 0 171.5 -29.5t129 -84t82 -130t28.5 -167.5q0 -29 -5 -70t-21.5 -86t-46 -89t-78.5 -81q63 -25 111 -65.5t80 -92t47.5 -108t15.5 -113.5q0 -94 -35 -171t-91.5 -131t-131 -84t-154.5 -30 q-53 0 -107.5 13.5t-104.5 42t-92 77t-71 119.5v-227h-129zM176 440h86q4 -102 35 -168.5t76 -104.5t94 -52.5t90 -14.5q55 0 104.5 20.5t88 58.5t61.5 89t23 113q0 16 -2.5 43t-13.5 58.5t-32.5 65.5t-58.5 64q-37 33 -91 50.5t-171 17.5h-92v125h90q51 0 99 21.5t86 60.5 t60.5 92t22.5 117q0 141 -78 213.5t-202 72.5q-66 0 -123.5 -27.5t-87.5 -74.5q-23 -33 -35 -65.5t-18.5 -72.5t-8.5 -90.5t-2 -115.5v-496z" />
<glyph unicode="&#xe0;" horiz-adv-x="1222" d="M33 543q0 113 40 215t113.5 180t179 125t236.5 47h563v-1110h-129l-2 164q-78 -92 -186.5 -140.5t-245.5 -48.5q-133 0 -238.5 48.5t-179 127t-112.5 181t-39 211.5zM162 543q0 -78 27.5 -157t83 -142.5t139.5 -103.5t196 -40q98 0 177 36t137 95q55 55 88 140 q27 74 26 497v117h-434q-90 0 -171 -32.5t-140.5 -91t-94 -139.5t-34.5 -179zM279 1440l65 108l516 -301l-63 -108z" />
<glyph unicode="&#xe1;" horiz-adv-x="1224" d="M33 543q0 113 40 215t113.5 180t179 125t236.5 47h563v-1110h-129l-2 164q-78 -92 -186.5 -140.5t-245.5 -48.5q-133 0 -238.5 48.5t-179 127t-112.5 181t-39 211.5zM162 543q0 -78 27.5 -157t83 -142.5t139.5 -103.5t196 -40q98 0 177 36t137 95q55 55 88 140 q27 74 26 497v117h-434q-90 0 -171 -32.5t-140.5 -91t-94 -139.5t-34.5 -179zM332 1247l516 301l65 -108l-518 -301z" />
<glyph unicode="&#xe2;" horiz-adv-x="1239" d="M33 543q0 113 40 215t113.5 180t179 125t236.5 47h563v-1110h-129l-2 164q-78 -92 -186.5 -140.5t-245.5 -48.5q-133 0 -238.5 48.5t-179 127t-112.5 181t-39 211.5zM162 543q0 -78 27.5 -157t83 -142.5t139.5 -103.5t196 -40q98 0 177 36t137 95q55 55 88 140 q27 74 26 497v117h-434q-90 0 -171 -32.5t-140.5 -91t-94 -139.5t-34.5 -179zM178 1255l445 250l450 -252l-125 -73l-325 180q-78 -43 -163 -91t-163 -89z" />
<glyph unicode="&#xe3;" horiz-adv-x="1228" d="M33 543q0 113 40 215t113.5 180t179 125t236.5 47h563v-1110h-129l-2 164q-78 -92 -186.5 -140.5t-245.5 -48.5q-133 0 -238.5 48.5t-179 127t-112.5 181t-39 211.5zM162 543q0 -78 27.5 -157t83 -142.5t139.5 -103.5t196 -40q98 0 177 36t137 95q55 55 88 140 q27 74 26 497v117h-434q-90 0 -171 -32.5t-140.5 -91t-94 -139.5t-34.5 -179zM219 1333q51 41 109.5 72t132.5 31q35 0 74.5 -8.5t105.5 -41.5q47 -25 79 -36t73 -11q35 0 64.5 12.5t76.5 41.5l88 -97q-53 -35 -113.5 -62.5t-113.5 -27.5q-45 0 -90.5 9.5t-102.5 41.5h2 q-59 31 -84.5 40.5t-58.5 9.5q-41 0 -81 -21.5t-69 -44.5z" />
<glyph unicode="&#xe4;" horiz-adv-x="1228" d="M33 543q0 113 40 215t113.5 180t179 125t236.5 47h563v-1110h-129l-2 164q-78 -92 -186.5 -140.5t-245.5 -48.5q-133 0 -238.5 48.5t-179 127t-112.5 181t-39 211.5zM162 543q0 -78 27.5 -157t83 -142.5t139.5 -103.5t196 -40q98 0 177 36t137 95q55 55 88 140 q27 74 26 497v117h-434q-90 0 -171 -32.5t-140.5 -91t-94 -139.5t-34.5 -179zM440 1178v297h131v-297h-131zM670 1178v297h131v-297h-131z" />
<glyph unicode="&#xe5;" horiz-adv-x="1228" d="M33 543q0 113 40 215t113.5 180t179 125t236.5 47h563v-1110h-129l-2 164q-78 -92 -186.5 -140.5t-245.5 -48.5q-133 0 -238.5 48.5t-179 127t-112.5 181t-39 211.5zM162 543q0 -78 27.5 -157t83 -142.5t139.5 -103.5t196 -40q98 0 177 36t137 95q55 55 88 140 q27 74 26 497v117h-434q-90 0 -171 -32.5t-140.5 -91t-94 -139.5t-34.5 -179zM408 1341q0 43 17 82t47 68t68 45t81 16q45 0 83.5 -16t67.5 -45t45.5 -68t16.5 -82q0 -90 -61.5 -151.5t-151.5 -61.5t-151.5 61.5t-61.5 151.5zM539 1343q0 -35 23.5 -58t58.5 -23t59.5 23 t24.5 58t-25 58.5t-59 23.5q-35 0 -58.5 -23.5t-23.5 -58.5z" />
<glyph unicode="&#xe6;" horiz-adv-x="2320" d="M63 541q0 123 43.5 226t120 180t179 120t223.5 43h565l2 -205q49 68 104.5 108t110.5 61.5t107.5 28.5t95.5 7q133 0 237.5 -51t176 -135t110.5 -195t43 -229h-983q18 -121 70.5 -199t117 -123t130 -61.5t112.5 -16.5q70 0 131.5 23.5t112.5 61.5t90 86t66 96h141 q-31 -68 -82 -137.5t-120 -126t-152.5 -92.5t-180.5 -36q-135 0 -247.5 53.5t-192.5 157.5v-186h-129l-2 184q-51 -66 -112.5 -106.5t-121 -63t-111.5 -31t-85 -8.5q-123 0 -226.5 43t-180 119t-120 179.5t-43.5 224.5zM193 543q0 -96 33.5 -177t92 -139.5t139.5 -92.5 t177 -34q90 0 168 36t135 95q59 59 94 142q33 72 33 579v33h-430q-96 0 -177 -33.5t-139.5 -92t-92 -140.5t-33.5 -176zM1204 625h832q-41 174 -154 267t-264 93q-74 0 -155 -27.5t-156 -115.5q-49 -55 -71 -109.5t-32 -107.5z" />
<glyph unicode="&#xe7;" horiz-adv-x="913" d="M4 543q0 119 43 222t119 180t180.5 121t226.5 44q102 0 182.5 -28.5t125.5 -57.5v-152q-78 49 -153 81t-153 32q-86 0 -165.5 -30.5t-141 -88t-97.5 -139.5t-36 -184q0 -98 35 -179t95.5 -139.5t139 -91.5t168.5 -33q96 0 150.5 23.5t89.5 44.5l2 1t8 7l19.5 19.5 t38.5 35.5v-176q-63 -35 -140 -57.5t-168 -22.5h-4q-2 -2 -4 -2q76 -8 116 -60t40 -114q0 -31 -11.5 -63.5t-34 -59t-55 -43t-77.5 -16.5q-12 0 -38 4t-54.5 23.5t-55 58.5t-39.5 109h43l-30 6l77 168q-96 18 -177 66t-140 121t-92 166t-33 204zM487 -201q12 -41 32 -48 t24 -7q20 0 35.5 13.5t15.5 41.5q0 23 -15.5 36t-35.5 13q-29 0 -56 -49z" />
<glyph unicode="&#xe8;" horiz-adv-x="1208" d="M20 541q0 123 44.5 226t121 180t180 120t224.5 43q109 0 209 -38t178 -108.5t127 -172t55 -226.5l-2 -65h-1003q8 -104 53 -180t108.5 -124.5t136 -72t138.5 -23.5q131 0 238.5 69t168.5 198h140q-43 -100 -103.5 -174t-132.5 -122t-151.5 -72t-159.5 -24 q-125 0 -229.5 44t-180.5 120t-118 179.5t-42 222.5zM156 625h868q-10 76 -49 141t-97.5 114.5t-131 77t-148.5 27.5q-84 0 -158.5 -27.5t-133 -75.5t-98.5 -114t-52 -143zM283 1440l63 108l516 -301l-61 -108z" />
<glyph unicode="&#xe9;" horiz-adv-x="1208" d="M14 541q0 123 44 226t121 180t181.5 120t225.5 43q109 0 208 -38t177 -108.5t127 -172t55 -226.5l-2 -65h-1004q8 -104 53.5 -180t109 -124.5t137 -72t139.5 -23.5q129 0 236.5 69t168.5 198h139q-43 -100 -103 -174t-132 -122t-151.5 -72t-159.5 -24q-125 0 -229.5 44 t-180.5 120t-118 179.5t-42 222.5zM152 625h866q-10 76 -49 141t-97.5 114.5t-131 77t-148.5 27.5q-84 0 -158 -27.5t-133 -75.5t-98 -114t-51 -143zM297 1247l516 301l66 -108l-519 -301z" />
<glyph unicode="&#xea;" horiz-adv-x="1222" d="M23 541q0 123 44 226t120.5 180t181 120t225.5 43q109 0 209 -38t178 -108.5t126 -172t54 -226.5v-65h-1003q8 -104 53 -180t108.5 -124.5t136 -72t138.5 -23.5q131 0 237.5 69t167.5 198h142q-43 -100 -103.5 -174t-132 -122t-151.5 -72t-162 -24q-123 0 -227.5 44 t-180 120t-118.5 179.5t-43 222.5zM145 1255l447 250l448 -252l-122 -73l-326 180q-78 -43 -164 -91t-162 -89zM160 625h866q-10 76 -49 141t-96.5 114.5t-130 77t-148.5 27.5q-84 0 -158.5 -27.5t-133 -75.5t-98.5 -114t-52 -143z" />
<glyph unicode="&#xeb;" horiz-adv-x="1212" d="M20 541q0 123 44.5 226t121 180t180 120t224.5 43q109 0 209 -38t178 -108.5t127 -172t55 -226.5l-2 -65h-1003q8 -104 53 -180t108.5 -124.5t136 -72t138.5 -23.5q131 0 238.5 69t168.5 198h140q-43 -100 -103.5 -174t-132.5 -122t-151.5 -72t-159.5 -24 q-125 0 -229.5 44t-180.5 120t-118 179.5t-42 222.5zM156 625h868q-10 76 -49 141t-97.5 114.5t-131 77t-148.5 27.5q-84 0 -158.5 -27.5t-133 -75.5t-98.5 -114t-52 -143zM399 1178v297h131v-297h-131zM627 1178v297h131v-297h-131z" />
<glyph unicode="&#xec;" horiz-adv-x="530" d="M-37 1440l66 108l516 -301l-64 -108zM242 0v1085h129v-1085h-129z" />
<glyph unicode="&#xed;" horiz-adv-x="530" d="M-33 1247l516 301l66 -108l-518 -301zM139 0v1085h129v-1085h-129z" />
<glyph unicode="&#xee;" horiz-adv-x="825" d="M-49 1255l446 250l449 -252l-123 -73l-326 180q-78 -43 -164 -91t-161 -89zM332 0v1085h131v-1085h-131z" />
<glyph unicode="&#xef;" horiz-adv-x="366" d="M-4 1178v297h133v-297h-133zM111 0v1085h129v-1085h-129zM225 1178v297h131v-297h-131z" />
<glyph unicode="&#xf0;" horiz-adv-x="1239" d="M27 541q0 127 43 231.5t119.5 180t183 116.5t231.5 41q45 0 86 -7t82 -22q-47 39 -95 73t-106 63q-86 -35 -184 -75t-184 -75l-99 98l316 127q-59 27 -136 55.5t-188 65.5l168 76q94 -33 171 -65.5t149 -67.5q37 14 82 32.5l90 37t88 36t80 31.5l90 -102l-289 -115 q127 -82 212 -168t136 -177t72.5 -187.5t21.5 -198.5q0 -139 -50 -244.5t-131 -178.5t-184.5 -110t-209.5 -37q-109 0 -210 37t-180 109t-127 177t-48 243zM158 543q0 -96 32.5 -177t91 -139.5t139.5 -92.5t175 -34q96 0 177 34t140.5 94.5t92 141.5t32.5 175 q0 92 -35.5 172t-96 140.5t-140.5 94t-166 33.5q-96 0 -177 -33.5t-140.5 -93t-92 -140.5t-32.5 -175z" />
<glyph unicode="&#xf1;" horiz-adv-x="1099" d="M33 0v1085h129l2 -114q70 72 167 105.5t197 33.5q29 0 68 -3t84 -14.5t94 -33t98 -60.5q162 -137 162 -428v-571h-129v571q0 123 -30.5 202t-79.5 126q-35 31 -96.5 58.5t-163.5 27.5q-174 0 -273.5 -96t-99.5 -271v-618h-129zM131 1333q51 41 109.5 72t132.5 31 q35 0 74.5 -8.5t105.5 -41.5q47 -25 79 -36t73 -11q35 0 64.5 12.5t76.5 41.5l88 -97q-53 -35 -113.5 -62.5t-113.5 -27.5q-45 0 -90.5 9.5t-102.5 41.5h2q-59 31 -84.5 40.5t-58.5 9.5q-41 0 -81 -21.5t-69 -44.5z" />
<glyph unicode="&#xf2;" horiz-adv-x="1214" d="M20 543q0 121 43 224t120 180t180.5 120t226.5 43t226.5 -43t180 -120t119.5 -180t43 -224t-43 -225.5t-119.5 -180.5t-180 -119t-226.5 -43t-226.5 43t-180.5 119t-120 180.5t-43 225.5zM150 543q0 -96 33.5 -177t92 -139.5t139.5 -92.5t175 -34t174 34t138.5 92.5 t92 139.5t33.5 177q0 94 -33.5 176t-92 140.5t-138.5 92t-174 33.5t-175 -33.5t-139.5 -92t-92 -140.5t-33.5 -176zM285 1440l63 108l516 -301l-61 -108z" />
<glyph unicode="&#xf3;" horiz-adv-x="1216" d="M16 543q0 121 43 224t120 180t180.5 120t226.5 43t226 -43t180 -120t120 -180t43 -224t-43 -225.5t-120 -180.5t-180 -119t-226 -43t-226.5 43t-180.5 119t-120 180.5t-43 225.5zM145 543q0 -96 34 -177t92.5 -139.5t139.5 -92.5t175 -34t174 34t138 92.5t92 139.5 t34 177q0 94 -34 176t-92 140.5t-138 92t-174 33.5t-175 -33.5t-139.5 -92t-92.5 -140.5t-34 -176zM301 1247l516 301l66 -108l-518 -301z" />
<glyph unicode="&#xf4;" horiz-adv-x="1230" d="M23 543q0 121 43 224t119.5 180t180 120t226.5 43t226.5 -43t180 -120t119.5 -180t43 -224t-43 -225.5t-119.5 -180.5t-180 -119t-226.5 -43t-226.5 43t-180 119t-119.5 180.5t-43 225.5zM147 1255l445 250l450 -252l-124 -73l-326 180q-78 -43 -163 -91t-163 -89z M154 543q0 -96 33.5 -177t92 -139.5t138.5 -92.5t174 -34t175 34t139.5 92.5t92 139.5t33.5 177q0 94 -33.5 176t-92 140.5t-139.5 92t-175 33.5t-174 -33.5t-138.5 -92t-92 -140.5t-33.5 -176z" />
<glyph unicode="&#xf5;" horiz-adv-x="1220" d="M20 543q0 121 43 224t120 180t180.5 120t226.5 43t226.5 -43t180 -120t119.5 -180t43 -224t-43 -225.5t-119.5 -180.5t-180 -119t-226.5 -43t-226.5 43t-180.5 119t-120 180.5t-43 225.5zM150 543q0 -96 33.5 -177t92 -139.5t139.5 -92.5t175 -34t174 34t138.5 92.5 t92 139.5t33.5 177q0 94 -33.5 176t-92 140.5t-138.5 92t-174 33.5t-175 -33.5t-139.5 -92t-92 -140.5t-33.5 -176zM188 1333q51 41 109.5 72t132.5 31q35 0 75 -8.5t105 -41.5q47 -25 79 -36t73 -11q35 0 64.5 12.5t76.5 41.5l88 -97q-53 -35 -113.5 -62.5t-113.5 -27.5 q-45 0 -90 9.5t-103 41.5h2q-59 31 -84.5 40.5t-58.5 9.5q-41 0 -81 -21.5t-68 -44.5z" />
<glyph unicode="&#xf6;" horiz-adv-x="1220" d="M20 543q0 121 43 224t120 180t180.5 120t226.5 43t226.5 -43t180 -120t119.5 -180t43 -224t-43 -225.5t-119.5 -180.5t-180 -119t-226.5 -43t-226.5 43t-180.5 119t-120 180.5t-43 225.5zM150 543q0 -96 33.5 -177t92 -139.5t139.5 -92.5t175 -34t174 34t138.5 92.5 t92 139.5t33.5 177q0 94 -33.5 176t-92 140.5t-138.5 92t-174 33.5t-175 -33.5t-139.5 -92t-92 -140.5t-33.5 -176zM410 1178v297h131v-297h-131zM639 1178v297h131v-297h-131z" />
<glyph unicode="&#xf7;" horiz-adv-x="1030" d="M-16 449v131h1028v-131h-1028zM432 0v231h133v-231h-133zM432 799v229h133v-229h-133z" />
<glyph unicode="&#xf8;" horiz-adv-x="1241" d="M29 543q0 121 43 224t119.5 180t180 120t226.5 43q80 0 151.5 -17.5t131.5 -50.5q29 41 61.5 85t56.5 79l103 -78l-117 -161q88 -78 135 -184.5t47 -239.5q0 -121 -43 -225.5t-119.5 -180.5t-180 -119t-226.5 -43q-80 0 -150.5 18.5t-130.5 51.5q-29 -39 -60.5 -82 t-55.5 -78l-103 78l115 160q-82 76 -133 183.5t-51 236.5zM160 543q0 -92 34.5 -175t94.5 -143l516 711q-47 23 -98.5 36t-108.5 13q-94 0 -174 -33.5t-138.5 -92t-92 -140.5t-33.5 -176zM393 150q94 -49 205 -50q94 0 175 34t139.5 92.5t92 139.5t33.5 177t-33.5 178 t-95.5 141q-133 -184 -257 -356t-259 -356z" />
<glyph unicode="&#xf9;" horiz-adv-x="1089" d="M25 514v571h129v-571q0 -123 29.5 -202t80.5 -126q53 -47 121 -66.5t137 -19.5q178 0 276.5 97.5t98.5 277.5v610h129v-1085h-129l-2 117q-68 -70 -165 -106t-198 -36q-10 0 -45.5 1t-85 10.5t-107.5 33t-110 66.5q-76 68 -117.5 176.5t-41.5 251.5zM219 1440l66 108 l516 -301l-64 -108z" />
<glyph unicode="&#xfa;" horiz-adv-x="1091" d="M18 514v571h129v-571q0 -123 30 -202t81 -126q53 -47 120.5 -66.5t137.5 -19.5q178 0 276.5 97.5t98.5 277.5v610h129v-1085h-129l-2 117q-68 -70 -164 -106t-199 -36q-10 0 -46 1t-85 10.5t-107.5 33t-109.5 66.5q-76 68 -118 176.5t-42 251.5zM244 1247l516 301 l65 -108l-518 -301z" />
<glyph unicode="&#xfb;" horiz-adv-x="1112" d="M33 514v571h129v-571q0 -123 29.5 -202t80.5 -126q53 -47 121 -66.5t137 -19.5q178 0 276.5 97.5t98.5 277.5v610h129v-1085h-129l-2 117q-68 -70 -165 -106t-197 -36q-10 0 -46 1t-85.5 10.5t-107.5 33t-109 66.5q-76 68 -118 176.5t-42 251.5zM86 1255l446 250 l449 -252l-123 -73l-326 180q-78 -43 -163.5 -91t-161.5 -89z" />
<glyph unicode="&#xfc;" horiz-adv-x="1099" d="M27 514v571h129v-571q0 -123 29.5 -202t80.5 -126q53 -47 121 -66.5t137 -19.5q178 0 276.5 97.5t98.5 277.5v610h129v-1085h-129l-2 117q-68 -70 -165 -106t-197 -36q-10 0 -46 1t-85.5 10.5t-107.5 33t-110 66.5q-76 68 -117.5 176.5t-41.5 251.5zM346 1178v297h131 v-297h-131zM575 1178v297h132v-297h-132z" />
<glyph unicode="&#xfd;" horiz-adv-x="989" d="M-23 1085h144l348 -872q92 217 186.5 438t184.5 434h145l-643 -1491h-143l194 445q-100 250 -207.5 522.5t-208.5 523.5zM197 1247l516 301l65 -108l-518 -301z" />
<glyph unicode="&#xfe;" horiz-adv-x="1228" d="M57 -406v1891h129l4 -576q51 61 113 101.5t122 62t114.5 29.5t91.5 8q121 0 225.5 -43t181 -120t120.5 -180t44 -224t-44 -225.5t-120.5 -180.5t-181 -119t-225.5 -43q-137 0 -252 55.5t-193 147.5v-584h-129zM186 537q0 -82 34 -160t93.5 -139.5t141.5 -99.5t178 -38 q94 0 175 34t139.5 92.5t91 139.5t32.5 177q0 94 -32.5 176t-91 140.5t-139.5 92t-175 33.5q-86 0 -167 -31.5t-143.5 -90t-99.5 -141.5t-37 -185z" />
<glyph unicode="&#xff;" horiz-adv-x="989" d="M-23 1085h144l348 -872q92 217 186.5 438t184.5 434h145l-643 -1491h-143l194 445q-100 250 -207.5 522.5t-208.5 523.5zM291 1178v297h133v-297h-133zM520 1178v297h131v-297h-131z" />
<glyph unicode="&#x152;" horiz-adv-x="2293" d="M49 758q0 174 60.5 318.5t165 246.5t246 159.5t300.5 57.5q209 0 379 -92t270 -246v314h748v-132h-612v-557h612v-129h-612v-567h612v-131h-748l-4 309q-98 -152 -266 -243t-373 -91q-164 0 -305 57.5t-246.5 160t-166 247t-60.5 318.5zM184 758q0 -143 50.5 -263 t136.5 -207t202.5 -135.5t251.5 -48.5q154 0 274 56.5t202.5 147.5t125.5 204t43 227v41q0 106 -42 219t-123.5 204t-202.5 149.5t-277 58.5q-135 0 -251.5 -48t-202.5 -135t-136.5 -207t-50.5 -263z" />
<glyph unicode="&#x153;" horiz-adv-x="2326" d="M63 541q0 123 43.5 226t120 180t180 120t226.5 43q129 0 241.5 -51t190.5 -150h-2q25 -31 41 -57.5t29 -50.5q45 92 108.5 150.5t131 92t134 46t119.5 12.5q123 0 225.5 -49t177 -131t116.5 -191.5t42 -228.5h-983q12 -102 53 -177t99.5 -125t130.5 -75t145 -25 q59 0 117.5 16.5t111 50.5t95.5 85t67 119h156q-23 -33 -33 -52.5t-12 -23.5q-25 -51 -64.5 -114.5t-127.5 -119.5q-78 -49 -155 -67.5t-155 -18.5q-57 0 -126.5 16.5t-139.5 53.5t-131 94.5t-102 141.5q-47 -84 -108.5 -142.5t-127.5 -94.5t-134.5 -52.5t-129.5 -16.5 q-123 0 -226.5 43t-180 119t-120 179.5t-43.5 224.5zM193 543q0 -96 33.5 -177t92 -139.5t139.5 -92.5t175 -34t174 38t137 99.5t90 140.5t33 161q0 80 -30.5 158.5t-87 143t-136.5 104.5t-180 40q-94 0 -175 -33.5t-139.5 -92t-92 -140.5t-33.5 -176zM1210 627h832 q-10 55 -41 116.5t-82 113.5t-124 86t-171 34q-78 0 -145.5 -26.5t-121.5 -73t-92 -111t-55 -139.5z" />
<glyph unicode="&#x178;" horiz-adv-x="1097" d="M-39 1516h152l422 -828q104 207 209.5 415t209.5 413h154l-506 -992v-524h-135v524q-59 117 -123.5 243t-129 254t-129.5 253t-124 242zM352 1561v303h133v-303h-133zM586 1561v303h133v-303h-133z" />
<glyph unicode="&#x2c6;" horiz-adv-x="866" d="M-29 1255l447 250l448 -252l-123 -73l-325 180q-78 -43 -164 -91t-162 -89z" />
<glyph unicode="&#x2dc;" horiz-adv-x="804" d="M-14 1333q49 41 108.5 72t132.5 31q33 0 73 -8.5t106 -41.5q47 -25 79.5 -36t73.5 -11q35 0 64.5 12.5t76.5 41.5l86 -97q-51 -35 -111.5 -62.5t-113.5 -27.5q-45 0 -90 9.5t-102 41.5h2q-31 14 -50.5 24.5t-35 16t-28.5 7.5t-30 2q-41 0 -82 -21.5t-67 -44.5z" />
<glyph unicode="&#x2000;" horiz-adv-x="969" />
<glyph unicode="&#x2001;" horiz-adv-x="1939" />
<glyph unicode="&#x2002;" horiz-adv-x="969" />
<glyph unicode="&#x2003;" horiz-adv-x="1939" />
<glyph unicode="&#x2004;" horiz-adv-x="646" />
<glyph unicode="&#x2005;" horiz-adv-x="484" />
<glyph unicode="&#x2006;" horiz-adv-x="323" />
<glyph unicode="&#x2007;" horiz-adv-x="323" />
<glyph unicode="&#x2008;" horiz-adv-x="242" />
<glyph unicode="&#x2009;" horiz-adv-x="387" />
<glyph unicode="&#x200a;" horiz-adv-x="107" />
<glyph unicode="&#x2010;" horiz-adv-x="714" d="M53 500v131h582v-131h-582z" />
<glyph unicode="&#x2011;" horiz-adv-x="714" d="M53 500v131h582v-131h-582z" />
<glyph unicode="&#x2012;" horiz-adv-x="714" d="M53 500v131h582v-131h-582z" />
<glyph unicode="&#x2013;" horiz-adv-x="1038" d="M53 500v131h895v-131h-895z" />
<glyph unicode="&#x2014;" horiz-adv-x="2060" d="M70 500v131h1847v-131h-1847z" />
<glyph unicode="&#x2018;" horiz-adv-x="229" d="M-39 1485h143l156 -369h-145z" />
<glyph unicode="&#x2019;" horiz-adv-x="231" d="M-37 1116l156 369h143l-153 -369h-146z" />
<glyph unicode="&#x201a;" horiz-adv-x="229" d="M-37 -137l154 368h143l-154 -368h-143z" />
<glyph unicode="&#x201c;" horiz-adv-x="460" d="M-12 1485h143l156 -369h-146zM156 1485h145l154 -369h-144z" />
<glyph unicode="&#x201d;" horiz-adv-x="460" d="M-10 1116l153 369h146l-156 -369h-143zM158 1116l155 369h144l-154 -369h-145z" />
<glyph unicode="&#x201e;" horiz-adv-x="460" d="M-10 -137l153 368h146l-156 -368h-143zM158 -137l155 368h144l-154 -368h-145z" />
<glyph unicode="&#x2022;" horiz-adv-x="731" d="M25 756q0 68 24.5 128t68.5 106t105.5 73t132.5 27q68 0 126.5 -27t103.5 -73t70.5 -106t25.5 -128q0 -70 -26.5 -130.5t-70.5 -105.5t-103.5 -71.5t-127.5 -26.5q-70 0 -130 26.5t-104 72.5t-69.5 106.5t-25.5 128.5z" />
<glyph unicode="&#x2026;" horiz-adv-x="1581" d="M61 0v231h134v-231h-134zM696 0v231h133v-231h-133zM1331 0v231h133v-231h-133z" />
<glyph unicode="&#x202f;" horiz-adv-x="387" />
<glyph unicode="&#x2039;" horiz-adv-x="333" d="M-35 561l252 438l86 -114l-184 -324q45 -76 93 -160t91 -157l-86 -115z" />
<glyph unicode="&#x203a;" horiz-adv-x="333" d="M18 244l185 319q-45 78 -93.5 163t-91.5 159l88 114l250 -438l-250 -432z" />
<glyph unicode="&#x205f;" horiz-adv-x="484" />
<glyph unicode="&#x20ac;" horiz-adv-x="1128" d="M4 565l19 127h141v33q0 33 -1 47t1 49h-160l19 125h147q10 102 33.5 202.5t77.5 180.5q61 92 147 136t211 44q104 0 176 -29.5t123 -80.5q49 -51 75.5 -124t35.5 -161h-134q-8 66 -25.5 117t-51.5 82q-70 70 -201 69q-92 0 -151.5 -34.5t-94.5 -92.5 q-41 -66 -60.5 -146.5t-27.5 -162.5h584l-21 -125h-569v-129h541l-19 -127h-516q6 -102 28.5 -201.5t74.5 -160.5q72 -100 233 -101q139 0 213 74q29 29 47.5 79t28.5 112h135q-16 -96 -47 -170t-76 -117q-53 -51 -127 -78t-176 -27q-121 0 -203 40t-137 108 q-33 41 -55.5 94t-38 111.5t-23.5 119t-12 117.5h-164z" />
<glyph unicode="&#x2122;" horiz-adv-x="1822" d="M37 1364l2 121h600v-121h-238v-801h-129v801h-235zM682 563v922h131l375 -719q92 180 187 361.5t188 357.5h129v-922h-127l-4 649q-82 -158 -170 -325.5t-166 -323.5h-76l-338 654v-654h-129z" />
<glyph unicode="&#x25fc;" horiz-adv-x="1085" d="M0 0v1085h1085v-1085h-1085z" />
<glyph unicode="&#xfb01;" horiz-adv-x="722" d="M-10 961v124h164v62q0 18 2 52t13 73t34.5 80t67.5 74.5t111 57t165 27.5v-127q-27 -2 -71 -8t-87 -28.5t-73.5 -68.5t-30.5 -126v-68h366v-1085h-129v961h-237v-961h-131v961h-164zM522 1235v250h129v-250h-129z" />
<glyph unicode="&#xfb02;" horiz-adv-x="727" d="M-10 961v124h164v62q0 18 2 52t13 73t34.5 80t67.5 74.5t111 57t165 27.5v-26h104v-1485h-129v961h-237v-961h-131v961h-164zM285 1085h237v297q-31 -4 -71.5 -13t-77.5 -33.5t-62.5 -67.5t-25.5 -115v-68z" />
<glyph unicode="&#xfb03;" horiz-adv-x="1136" d="M14 961v124h164v62q0 18 2 52t13.5 73t35 80t67.5 74.5t110.5 57t164.5 27.5v-127q-25 -2 -68.5 -8t-86.5 -28.5t-75 -68.5t-32 -126v-68h238v62q0 29 6 87t43 117.5t117 106.5t225 53v-127q-25 -2 -69 -8t-87 -28.5t-74.5 -68.5t-31.5 -126v-68h368v-1085h-131v961h-237 v-961h-129v961h-238v-961h-131v961h-164zM913 1235v250h131v-250h-131z" />
<glyph unicode="&#xfb04;" horiz-adv-x="1140" d="M14 961v124h164v62q0 18 2 52t13.5 73t35 80t67.5 74.5t110.5 57t164.5 27.5v-127q-25 -2 -68.5 -8t-86.5 -28.5t-75 -68.5t-32 -126v-68h238v62q0 29 6 87t43 117.5t117 106.5t225 53v-26h106v-1485h-131v961h-237v-961h-129v961h-238v-961h-131v961h-164zM676 1085h237 v297q-31 -4 -71.5 -13t-77.5 -33.5t-62.5 -67.5t-25.5 -115v-68z" />
</font>
</defs>
</svg>
